<svg width="25" height="25" viewBox="0 0 25 25" fill="none" xmlns="http://www.w3.org/2000/svg">
<g filter="url(#filter0_d)">
<path d="M12.5758 4.83868C8.3509 4.83868 4.92603 8.26362 4.92603 12.4888C4.92603 16.7135 8.3509 20.1387 12.5758 20.1387C16.8006 20.1387 20.226 16.7136 20.226 12.4888C20.226 8.26367 16.8006 4.83868 12.5758 4.83868ZM12.5758 19.0571C8.9484 19.0571 6.00768 16.1161 6.00768 12.4888C6.00768 8.86111 8.9484 5.92051 12.5758 5.92051C16.2034 5.92051 19.144 8.86117 19.144 12.4888C19.144 16.1161 16.2034 19.0571 12.5758 19.0571Z" fill="#BF3D27"/>
<path d="M12.576 18.4064C15.8442 18.4064 18.4936 15.757 18.4936 12.4888C18.4936 9.22062 15.8442 6.57123 12.576 6.57123C9.30778 6.57123 6.65839 9.22062 6.65839 12.4888C6.65839 15.757 9.30778 18.4064 12.576 18.4064Z" fill="#BF3D27"/>
<path d="M16.1197 14.234L14.3207 16.0328L12.5758 14.2877L10.8306 16.0328L9.03192 14.234L10.7765 12.4888L9.03192 10.7441L10.8306 8.94452L12.5758 10.69L14.3207 8.94452L16.1197 10.7441L14.3743 12.4888L16.1197 14.234Z" fill="white"/>
<rect x="4.5" y="4.5" width="16" height="16" stroke="white"/>
</g>
<defs>
<filter id="filter0_d" x="0" y="0" width="25" height="25" filterUnits="userSpaceOnUse" color-interpolation-filters="sRGB">
<feFlood flood-opacity="0" result="BackgroundImageFix"/>
<feColorMatrix in="SourceAlpha" type="matrix" values="0 0 0 0 0 0 0 0 0 0 0 0 0 0 0 0 0 0 127 0"/>
<feOffset/>
<feGaussianBlur stdDeviation="2"/>
<feColorMatrix type="matrix" values="0 0 0 0 1 0 0 0 0 1 0 0 0 0 1 0 0 0 1 0"/>
<feBlend mode="normal" in2="BackgroundImageFix" result="effect1_dropShadow"/>
<feBlend mode="normal" in="SourceGraphic" in2="effect1_dropShadow" result="shape"/>
</filter>
</defs>
</svg>
