<svg width="166" height="37" viewBox="0 0 166 37" fill="none" xmlns="http://www.w3.org/2000/svg">
<rect width="166" height="37" rx="5" fill="#F54C63"/>
<path d="M37.3125 24H38.4525L39.825 13.7475L43.3575 23.2425H44.175L47.7075 13.7475L49.08 24H50.22L48.615 11.625H47.4075L43.7625 21.3075L40.125 11.625H38.9175L37.3125 24ZM56.7398 24.24C57.5048 24.24 58.1998 24.075 58.8248 23.745C59.4548 23.415 59.9523 22.9525 60.3173 22.3575L59.5073 21.9225C58.8673 22.8625 57.9598 23.3325 56.7848 23.3325C56.1748 23.3325 55.6323 23.2025 55.1573 22.9425C54.6823 22.6775 54.3098 22.315 54.0398 21.855C53.7748 21.39 53.6423 20.86 53.6423 20.265H60.5573C60.5673 20.21 60.5723 20.1625 60.5723 20.1225C60.5773 20.0825 60.5798 20.035 60.5798 19.98C60.5598 19.215 60.3748 18.54 60.0248 17.955C59.6798 17.365 59.2098 16.905 58.6148 16.575C58.0248 16.245 57.3498 16.08 56.5898 16.08C56.0348 16.08 55.5123 16.185 55.0223 16.395C54.5373 16.605 54.1098 16.8975 53.7398 17.2725C53.3698 17.6475 53.0798 18.085 52.8698 18.585C52.6598 19.08 52.5548 19.615 52.5548 20.19C52.5548 20.955 52.7348 21.645 53.0948 22.26C53.4598 22.87 53.9573 23.3525 54.5873 23.7075C55.2173 24.0625 55.9348 24.24 56.7398 24.24ZM53.7023 19.44C53.7673 18.955 53.9323 18.53 54.1973 18.165C54.4673 17.795 54.8098 17.5075 55.2248 17.3025C55.6398 17.0925 56.0998 16.9875 56.6048 16.9875C57.0998 16.9875 57.5523 17.0925 57.9623 17.3025C58.3723 17.5125 58.7123 17.8025 58.9823 18.1725C59.2523 18.5425 59.4198 18.965 59.4848 19.44H53.7023ZM63.1301 24H64.2251V18.9975C64.2251 18.6375 64.3126 18.305 64.4876 18C64.6676 17.69 64.9251 17.4425 65.2601 17.2575C65.5951 17.0675 65.9976 16.9725 66.4676 16.9725C67.1376 16.9725 67.6576 17.1825 68.0276 17.6025C68.4026 18.0225 68.5901 18.6275 68.5901 19.4175V24H69.6851V19.2075C69.6851 18.2175 69.4276 17.45 68.9126 16.905C68.4026 16.355 67.7026 16.08 66.8126 16.08C66.1776 16.08 65.6376 16.205 65.1926 16.455C64.7526 16.705 64.4301 17.01 64.2251 17.37V16.32H63.1301V24ZM75.8738 24.24C77.0388 24.24 77.8713 23.98 78.3713 23.46C78.8713 22.935 79.1213 22.055 79.1213 20.82V16.32H78.0263V20.625C78.0263 21.595 77.8613 22.2875 77.5313 22.7025C77.2063 23.1125 76.6538 23.3175 75.8738 23.3175C75.0988 23.3175 74.5463 23.1125 74.2163 22.7025C73.8863 22.2875 73.7213 21.595 73.7213 20.625V16.32H72.6263V20.82C72.6263 22.055 72.8763 22.935 73.3763 23.46C73.8763 23.98 74.7088 24.24 75.8738 24.24ZM75.7913 15.315L77.5163 12.675L76.6538 12.06L75.2288 14.9025L75.7913 15.315Z" fill="white"/>
<path d="M25.1 19.5933C24.9911 19.4687 24.8988 19.3327 24.8226 19.1891C24.7852 23.0485 21.6344 26.177 17.7663 26.177C13.8749 26.177 10.709 23.0111 10.709 19.1198C10.709 15.2284 13.8749 12.0625 17.7663 12.0625C21.1138 12.0625 23.9244 14.4055 24.6446 17.5376L25.2837 12.7866L25.2981 12.6798C23.4783 10.5545 20.7771 9.2052 17.7663 9.2052C15.4173 9.2052 13.2569 10.0268 11.5563 11.3971V11.4997V11.5905V13.6028V13.6827C11.5563 15.0268 10.8597 16.254 9.75735 16.9552V24.8211V24.9566C11.5623 27.4264 14.4798 29.0342 17.7663 29.0342C21.2197 29.0342 24.2659 27.2589 26.0416 24.5734V24.4282V20.215C25.6814 20.0978 25.3549 19.8849 25.1 19.5933Z" fill="white"/>
<path d="M17.7663 13.262C14.5362 13.262 11.9083 15.8898 11.9083 19.1199C11.9083 22.35 14.5361 24.9778 17.7663 24.9778C20.9964 24.9778 23.6242 22.35 23.6242 19.1199C23.6242 15.8898 20.9963 13.262 17.7663 13.262Z" fill="white"/>
<path d="M28.9733 8.15742C28.9733 7.64698 28.5595 7.23322 28.0491 7.23322C27.5863 7.23322 27.1948 7.5755 27.1332 8.03421L25.7827 18.0725C25.7472 18.3368 25.8275 18.6034 26.0029 18.8041C26.1785 19.0048 26.432 19.1199 26.6986 19.1199H27.2409V29.8872C27.2409 30.373 27.6347 30.7668 28.1204 30.7668C28.6061 30.7668 28.9999 30.373 28.9999 29.8872L28.9733 8.15742Z" fill="white"/>
<path d="M10.357 8.3526C10.357 8.02134 10.0886 7.75293 9.75735 7.75293C9.4261 7.75293 9.15769 8.02134 9.15769 8.3526V11.6707H8.27818V8.3526C8.27818 8.02134 8.00976 7.75293 7.67851 7.75293C7.34725 7.75293 7.07884 8.02134 7.07884 8.3526V11.6707H6.19933V8.3526C6.19933 8.02134 5.93092 7.75293 5.59967 7.75293C5.26841 7.75293 5 8.02134 5 8.3526V13.7629C5 14.9317 5.75294 15.9275 6.799 16.2923V29.8872C6.799 30.373 7.19278 30.7668 7.67851 30.7668C8.16424 30.7668 8.55802 30.373 8.55802 29.8872V16.2923C9.60408 15.9275 10.357 14.9317 10.357 13.7629V8.3526Z" fill="white"/>
</svg>
