<svg width="165" height="37" viewBox="0 0 165 37" fill="none" xmlns="http://www.w3.org/2000/svg">
<rect width="165" height="37" rx="5" fill="#2D2A6D"/>
<path d="M33.7097 14.432C33.7097 15.536 33.4137 16.472 32.8217 17.24C32.2297 18 31.4977 18.52 30.6257 18.8C31.0257 18.944 31.3657 19.204 31.6457 19.58C31.9337 19.948 32.1617 20.368 32.3297 20.84L33.3857 23.648C33.5617 24.12 33.7297 24.484 33.8897 24.74C34.0577 24.996 34.2497 25.208 34.4657 25.376C34.2977 25.632 34.0457 25.828 33.7097 25.964C33.3817 26.1 33.0577 26.168 32.7377 26.168C32.2577 26.168 31.9057 26.036 31.6817 25.772C31.4577 25.508 31.2497 25.12 31.0577 24.608L29.8577 21.356C29.6577 20.804 29.3897 20.344 29.0537 19.976C28.7177 19.6 28.1777 19.412 27.4337 19.412H25.4777V26C25.2777 26.04 25.0617 26.064 24.8297 26.072C24.6057 26.088 24.3937 26.096 24.1937 26.096C24.0097 26.096 23.7977 26.088 23.5577 26.072C23.3257 26.064 23.1177 26.04 22.9337 26V9.74L23.0897 9.596C23.9937 9.58 24.8777 9.564 25.7417 9.548C26.6057 9.524 27.4457 9.512 28.2617 9.512C29.9257 9.512 31.2497 9.932 32.2337 10.772C33.2177 11.612 33.7097 12.832 33.7097 14.432ZM25.4777 11.516V17.372C25.9417 17.356 26.4177 17.344 26.9057 17.336C27.3937 17.328 27.8017 17.324 28.1297 17.324C28.9137 17.324 29.5177 17.18 29.9417 16.892C30.3657 16.604 30.6577 16.24 30.8177 15.8C30.9777 15.352 31.0577 14.896 31.0577 14.432C31.0577 13.944 30.9777 13.48 30.8177 13.04C30.6577 12.6 30.3657 12.24 29.9417 11.96C29.5177 11.68 28.9137 11.54 28.1297 11.54C27.7857 11.54 27.3577 11.54 26.8457 11.54C26.3417 11.532 25.8857 11.524 25.4777 11.516ZM45.207 24.956C44.631 25.364 43.947 25.692 43.155 25.94C42.363 26.188 41.551 26.312 40.719 26.312C39.767 26.312 38.971 26.144 38.331 25.808C37.691 25.464 37.183 25.004 36.807 24.428C36.431 23.844 36.163 23.18 36.003 22.436C35.843 21.684 35.763 20.904 35.763 20.096C35.763 18.904 35.947 17.836 36.315 16.892C36.691 15.948 37.247 15.204 37.983 14.66C38.727 14.116 39.655 13.844 40.767 13.844C41.807 13.844 42.679 14.072 43.383 14.528C44.095 14.984 44.631 15.6 44.991 16.376C45.351 17.144 45.531 18.004 45.531 18.956C45.531 19.34 45.515 19.672 45.483 19.952C45.459 20.224 45.415 20.524 45.351 20.852H38.331C38.379 21.852 38.599 22.676 38.991 23.324C39.383 23.972 40.083 24.296 41.091 24.296C41.691 24.296 42.271 24.208 42.831 24.032C43.391 23.856 43.927 23.64 44.439 23.384C44.639 23.576 44.807 23.824 44.943 24.128C45.087 24.432 45.175 24.708 45.207 24.956ZM40.767 15.668C39.999 15.668 39.411 15.968 39.003 16.568C38.603 17.168 38.379 18 38.331 19.064H43.155V18.752C43.155 17.912 42.971 17.188 42.603 16.58C42.235 15.972 41.623 15.668 40.767 15.668ZM47.7865 20.096C47.7865 18.68 48.0105 17.512 48.4585 16.592C48.9145 15.664 49.4905 14.976 50.1865 14.528C50.8905 14.072 51.6185 13.844 52.3705 13.844C53.1225 13.844 53.7625 13.964 54.2905 14.204C54.8265 14.436 55.2865 14.724 55.6705 15.068C55.8385 14.796 56.0545 14.568 56.3185 14.384C56.5905 14.192 56.9185 14.056 57.3025 13.976C57.5025 14.096 57.6945 14.284 57.8785 14.54C58.0625 14.796 58.1825 15.036 58.2385 15.26C57.9745 15.492 57.7945 15.812 57.6985 16.22C57.6105 16.628 57.5665 17.064 57.5665 17.528V24.632C57.5665 26.016 57.4705 27.088 57.2785 27.848C57.0865 28.608 56.8025 29.224 56.4265 29.696C56.0345 30.176 55.4985 30.56 54.8185 30.848C54.1465 31.144 53.3585 31.292 52.4545 31.292C51.7105 31.292 50.9665 31.212 50.2225 31.052C49.4865 30.9 48.8425 30.708 48.2905 30.476C48.2985 30.172 48.3625 29.84 48.4825 29.48C48.6025 29.12 48.7545 28.832 48.9385 28.616C49.4425 28.856 49.9945 29.04 50.5945 29.168C51.2025 29.304 51.7425 29.372 52.2145 29.372C53.0305 29.372 53.6505 29.22 54.0745 28.916C54.4985 28.612 54.7865 28.208 54.9385 27.704C55.0905 27.2 55.1665 26.644 55.1665 26.036V24.884C54.7665 25.252 54.2945 25.564 53.7505 25.82C53.2065 26.076 52.6105 26.204 51.9625 26.204C50.5705 26.204 49.5265 25.644 48.8305 24.524C48.1345 23.396 47.7865 21.92 47.7865 20.096ZM50.3185 20.108C50.3185 21.54 50.5265 22.572 50.9425 23.204C51.3665 23.828 51.8745 24.14 52.4665 24.14C52.9625 24.14 53.4465 24.012 53.9185 23.756C54.3985 23.492 54.8145 23.144 55.1665 22.712V17.144C55.1665 17.064 55.1665 16.984 55.1665 16.904C54.7985 16.568 54.4065 16.304 53.9905 16.112C53.5745 15.92 53.1665 15.824 52.7665 15.824C52.0625 15.824 51.4785 16.176 51.0145 16.88C50.5505 17.576 50.3185 18.652 50.3185 20.108ZM63.9964 26C63.6524 26.064 63.2404 26.096 62.7604 26.096C62.2724 26.096 61.8564 26.064 61.5124 26V17.204C61.5124 16.78 61.4364 16.468 61.2844 16.268C61.1324 16.06 60.8604 15.956 60.4684 15.956H60.2044C60.1324 15.676 60.0964 15.388 60.0964 15.092C60.0964 14.788 60.1324 14.484 60.2044 14.18C60.5084 14.14 60.7924 14.112 61.0564 14.096C61.3284 14.08 61.5524 14.072 61.7284 14.072H62.0524C62.6524 14.072 63.1244 14.264 63.4684 14.648C63.8204 15.024 63.9964 15.544 63.9964 16.208V26ZM60.7804 10.952C60.7804 10.544 60.8524 10.188 60.9964 9.884C61.1404 9.796 61.3364 9.724 61.5844 9.668C61.8324 9.612 62.0764 9.584 62.3164 9.584C62.5404 9.584 62.7844 9.612 63.0484 9.668C63.3124 9.724 63.5084 9.796 63.6364 9.884C63.7084 10.02 63.7604 10.192 63.7924 10.4C63.8324 10.6 63.8524 10.784 63.8524 10.952C63.8524 11.352 63.7804 11.708 63.6364 12.02C63.5164 12.108 63.3204 12.18 63.0484 12.236C62.7844 12.284 62.5404 12.308 62.3164 12.308C62.0764 12.308 61.8284 12.284 61.5724 12.236C61.3244 12.18 61.1324 12.108 60.9964 12.02C60.8524 11.708 60.7804 11.352 60.7804 10.952ZM66.576 25.124C66.584 24.844 66.668 24.532 66.828 24.188C66.988 23.844 67.176 23.576 67.392 23.384C67.896 23.664 68.436 23.912 69.012 24.128C69.588 24.344 70.172 24.452 70.764 24.452C71.42 24.452 71.936 24.312 72.312 24.032C72.696 23.752 72.892 23.392 72.9 22.952C72.9 22.232 72.4 21.688 71.4 21.32L70.008 20.804C69.176 20.5 68.46 20.08 67.86 19.544C67.26 19.008 66.96 18.288 66.96 17.384C66.96 16.648 67.144 16.016 67.512 15.488C67.888 14.96 68.396 14.556 69.036 14.276C69.676 13.988 70.4 13.844 71.208 13.844C71.856 13.844 72.544 13.928 73.272 14.096C74.008 14.264 74.624 14.468 75.12 14.708C75.128 15.012 75.064 15.344 74.928 15.704C74.792 16.064 74.616 16.336 74.4 16.52C73.976 16.336 73.484 16.16 72.924 15.992C72.364 15.824 71.788 15.74 71.196 15.74C70.668 15.74 70.244 15.868 69.924 16.124C69.612 16.372 69.456 16.708 69.456 17.132C69.456 17.468 69.576 17.748 69.816 17.972C70.064 18.196 70.44 18.4 70.944 18.584L72.42 19.124C73.316 19.452 74.048 19.908 74.616 20.492C75.184 21.068 75.468 21.816 75.468 22.736C75.468 23.848 75.036 24.724 74.172 25.364C73.316 25.996 72.18 26.312 70.764 26.312C69.916 26.312 69.136 26.192 68.424 25.952C67.712 25.712 67.096 25.436 66.576 25.124ZM78.648 12.056C78.648 11.504 78.74 11.104 78.924 10.856C79.108 10.6 79.464 10.472 79.992 10.472H80.928L81.072 10.628V14.168L84.048 14.132C84.12 14.444 84.156 14.744 84.156 15.032C84.156 15.36 84.12 15.668 84.048 15.956L81.072 15.92V23.096C81.072 23.416 81.148 23.672 81.3 23.864C81.452 24.048 81.708 24.14 82.068 24.14H83.712C83.848 24.508 83.916 24.924 83.916 25.388C83.916 25.484 83.912 25.58 83.904 25.676C83.904 25.764 83.892 25.848 83.868 25.928C83.468 25.976 83.04 26.016 82.584 26.048C82.128 26.088 81.664 26.108 81.192 26.108C79.496 26.108 78.648 25.284 78.648 23.636V15.932L76.896 15.956C76.824 15.668 76.788 15.36 76.788 15.032C76.788 14.744 76.824 14.444 76.896 14.132L78.648 14.156V12.056ZM85.618 15.296C85.674 15.072 85.79 14.828 85.966 14.564C86.142 14.3 86.326 14.104 86.518 13.976C87.094 14.104 87.562 14.352 87.922 14.72C88.29 15.088 88.558 15.552 88.726 16.112C89.006 15.504 89.398 15 89.902 14.6C90.406 14.192 91.058 13.988 91.858 13.988C92.074 13.988 92.282 14 92.482 14.024C92.682 14.048 92.898 14.08 93.13 14.12C93.13 14.456 93.082 14.848 92.986 15.296C92.898 15.736 92.746 16.124 92.53 16.46C92.37 16.42 92.206 16.396 92.038 16.388C91.878 16.372 91.718 16.36 91.558 16.352C90.91 16.352 90.378 16.536 89.962 16.904C89.554 17.264 89.226 17.688 88.978 18.176V26C88.642 26.064 88.23 26.096 87.742 26.096C87.262 26.096 86.85 26.064 86.506 26V17.768C86.506 17.128 86.41 16.604 86.218 16.196C86.026 15.788 85.826 15.488 85.618 15.296ZM94.1338 22.772C94.1338 21.86 94.3338 21.112 94.7338 20.528C95.1418 19.944 95.6898 19.512 96.3778 19.232C97.0738 18.944 97.8538 18.8 98.7178 18.8C99.0538 18.8 99.4218 18.812 99.8218 18.836C100.23 18.852 100.634 18.888 101.034 18.944V18.02C101.034 17.268 100.862 16.728 100.518 16.4C100.174 16.072 99.6938 15.908 99.0778 15.908C98.4698 15.908 97.8418 16 97.1938 16.184C96.5538 16.36 95.9218 16.572 95.2978 16.82C95.0978 16.62 94.9298 16.348 94.7938 16.004C94.6578 15.652 94.5818 15.316 94.5658 14.996C95.2458 14.708 96.0418 14.452 96.9538 14.228C97.8738 14.004 98.7418 13.892 99.5578 13.892C100.734 13.892 101.682 14.22 102.402 14.876C103.122 15.532 103.482 16.548 103.482 17.924V22.844C103.482 23.292 103.522 23.688 103.602 24.032C103.69 24.368 103.874 24.656 104.154 24.896C104.082 25.12 103.958 25.36 103.782 25.616C103.606 25.864 103.418 26.052 103.218 26.18C102.722 26.084 102.318 25.9 102.006 25.628C101.702 25.356 101.47 25.036 101.31 24.668C100.878 25.084 100.358 25.464 99.7498 25.808C99.1418 26.144 98.4458 26.312 97.6618 26.312C96.8698 26.312 96.2098 26.136 95.6818 25.784C95.1618 25.432 94.7738 24.984 94.5178 24.44C94.2618 23.896 94.1338 23.34 94.1338 22.772ZM96.5938 22.604C96.5938 23.092 96.7338 23.508 97.0138 23.852C97.2938 24.188 97.6938 24.356 98.2138 24.356C98.6618 24.356 99.1378 24.232 99.6418 23.984C100.146 23.736 100.61 23.372 101.034 22.892V20.624C100.674 20.584 100.306 20.556 99.9298 20.54C99.5618 20.524 99.2098 20.516 98.8738 20.516C98.1458 20.516 97.5818 20.7 97.1818 21.068C96.7898 21.436 96.5938 21.948 96.5938 22.604ZM106.454 15.296C106.51 15.072 106.626 14.828 106.802 14.564C106.978 14.3 107.162 14.104 107.354 13.976C107.93 14.104 108.398 14.352 108.758 14.72C109.126 15.088 109.394 15.552 109.562 16.112C109.842 15.504 110.234 15 110.738 14.6C111.242 14.192 111.894 13.988 112.694 13.988C112.91 13.988 113.118 14 113.318 14.024C113.518 14.048 113.734 14.08 113.966 14.12C113.966 14.456 113.918 14.848 113.822 15.296C113.734 15.736 113.582 16.124 113.366 16.46C113.206 16.42 113.042 16.396 112.874 16.388C112.714 16.372 112.554 16.36 112.394 16.352C111.746 16.352 111.214 16.536 110.798 16.904C110.39 17.264 110.062 17.688 109.814 18.176V26C109.478 26.064 109.066 26.096 108.578 26.096C108.098 26.096 107.686 26.064 107.342 26V17.768C107.342 17.128 107.246 16.604 107.054 16.196C106.862 15.788 106.662 15.488 106.454 15.296ZM122.466 18.488C122.466 17.648 122.346 17.052 122.106 16.7C121.866 16.348 121.51 16.172 121.038 16.172C120.622 16.18 120.178 16.32 119.706 16.592C119.242 16.856 118.822 17.204 118.446 17.636V26C118.11 26.064 117.698 26.096 117.21 26.096C116.722 26.096 116.306 26.064 115.962 26V14.216L116.118 14.048H117.042C117.514 14.048 117.854 14.18 118.062 14.444C118.278 14.708 118.402 15.076 118.434 15.548C118.914 15.068 119.446 14.68 120.03 14.384C120.614 14.088 121.214 13.94 121.83 13.94C122.51 13.94 123.078 14.1 123.534 14.42C123.99 14.74 124.334 15.168 124.566 15.704C125.118 15.192 125.718 14.772 126.366 14.444C127.022 14.108 127.694 13.94 128.382 13.94C129.43 13.94 130.202 14.304 130.698 15.032C131.202 15.76 131.454 16.644 131.454 17.684V23.468C131.454 23.884 131.482 24.28 131.538 24.656C131.594 25.024 131.698 25.348 131.85 25.628C131.674 25.78 131.446 25.904 131.166 26C130.886 26.104 130.594 26.156 130.29 26.156C129.81 26.156 129.47 26.024 129.27 25.76C129.078 25.496 128.982 25.104 128.982 24.584V18.464C128.982 17.624 128.858 17.032 128.61 16.688C128.362 16.344 128.002 16.172 127.53 16.172C127.138 16.172 126.706 16.304 126.234 16.568C125.77 16.832 125.338 17.192 124.938 17.648V17.672V26C124.602 26.064 124.194 26.096 123.714 26.096C123.226 26.096 122.81 26.064 122.466 26V18.488ZM143.715 24.956C143.139 25.364 142.455 25.692 141.663 25.94C140.871 26.188 140.059 26.312 139.227 26.312C138.275 26.312 137.479 26.144 136.839 25.808C136.199 25.464 135.691 25.004 135.315 24.428C134.939 23.844 134.671 23.18 134.511 22.436C134.351 21.684 134.271 20.904 134.271 20.096C134.271 18.904 134.455 17.836 134.823 16.892C135.199 15.948 135.755 15.204 136.491 14.66C137.235 14.116 138.163 13.844 139.275 13.844C140.315 13.844 141.187 14.072 141.891 14.528C142.603 14.984 143.139 15.6 143.499 16.376C143.859 17.144 144.039 18.004 144.039 18.956C144.039 19.34 144.023 19.672 143.991 19.952C143.967 20.224 143.923 20.524 143.859 20.852H136.839C136.887 21.852 137.107 22.676 137.499 23.324C137.891 23.972 138.591 24.296 139.599 24.296C140.199 24.296 140.779 24.208 141.339 24.032C141.899 23.856 142.435 23.64 142.947 23.384C143.147 23.576 143.315 23.824 143.451 24.128C143.595 24.432 143.683 24.708 143.715 24.956ZM139.275 15.668C138.507 15.668 137.919 15.968 137.511 16.568C137.111 17.168 136.887 18 136.839 19.064H141.663V18.752C141.663 17.912 141.479 17.188 141.111 16.58C140.743 15.972 140.131 15.668 139.275 15.668Z" fill="white"/>
</svg>
