<svg width="166" height="37" viewBox="0 0 166 37" fill="none" xmlns="http://www.w3.org/2000/svg">
<rect width="166" height="37" rx="5" fill="#FF1F00"/>
<path d="M38.0175 24H39.1575V11.625H38.0175V24ZM42.7834 24H43.8784V18.9975C43.8784 18.6375 43.9659 18.305 44.1409 18C44.3209 17.69 44.5784 17.4425 44.9134 17.2575C45.2484 17.0675 45.6509 16.9725 46.1209 16.9725C46.7909 16.9725 47.3109 17.1825 47.6809 17.6025C48.0559 18.0225 48.2434 18.6275 48.2434 19.4175V24H49.3384V19.2075C49.3384 18.2175 49.0809 17.45 48.5659 16.905C48.0559 16.355 47.3559 16.08 46.4659 16.08C45.8309 16.08 45.2909 16.205 44.8459 16.455C44.4059 16.705 44.0834 17.01 43.8784 17.37V16.32H42.7834V24ZM52.9621 14.7825C53.1621 14.7825 53.3321 14.7125 53.4721 14.5725C53.6121 14.4325 53.6821 14.2625 53.6821 14.0625C53.6821 13.8625 53.6121 13.695 53.4721 13.56C53.3321 13.42 53.1621 13.35 52.9621 13.35C52.7621 13.35 52.5921 13.42 52.4521 13.56C52.3171 13.695 52.2496 13.8625 52.2496 14.0625C52.2496 14.2625 52.3171 14.4325 52.4521 14.5725C52.5921 14.7125 52.7621 14.7825 52.9621 14.7825ZM52.4146 24H53.5096V16.32H52.4146V24ZM60.3134 24.24C60.8234 24.24 61.3034 24.1625 61.7534 24.0075C62.2034 23.8575 62.5959 23.6525 62.9309 23.3925L62.4734 22.6575C61.9234 23.0925 61.2484 23.31 60.4484 23.31C59.8234 23.31 59.2709 23.1725 58.7909 22.8975C58.3159 22.6225 57.9434 22.2475 57.6734 21.7725C57.4034 21.2975 57.2684 20.76 57.2684 20.16C57.2684 19.57 57.4009 19.0375 57.6659 18.5625C57.9309 18.0875 58.3009 17.71 58.7759 17.43C59.2559 17.15 59.8109 17.01 60.4409 17.01C61.2359 17.01 61.9159 17.2275 62.4809 17.6625L62.9309 16.9275C62.6009 16.6625 62.2084 16.455 61.7534 16.305C61.2984 16.155 60.8184 16.08 60.3134 16.08C59.5284 16.08 58.8209 16.26 58.1909 16.62C57.5609 16.975 57.0634 17.46 56.6984 18.075C56.3334 18.69 56.1509 19.385 56.1509 20.16C56.1509 20.94 56.3359 21.6375 56.7059 22.2525C57.0809 22.8675 57.5834 23.3525 58.2134 23.7075C58.8434 24.0625 59.5434 24.24 60.3134 24.24ZM65.8234 14.7825C66.0234 14.7825 66.1934 14.7125 66.3334 14.5725C66.4734 14.4325 66.5434 14.2625 66.5434 14.0625C66.5434 13.8625 66.4734 13.695 66.3334 13.56C66.1934 13.42 66.0234 13.35 65.8234 13.35C65.6234 13.35 65.4534 13.42 65.3134 13.56C65.1784 13.695 65.1109 13.8625 65.1109 14.0625C65.1109 14.2625 65.1784 14.4325 65.3134 14.5725C65.4534 14.7125 65.6234 14.7825 65.8234 14.7825ZM65.2759 24H66.3709V16.32H65.2759V24ZM73.2722 24.24C74.0722 24.24 74.7922 24.0675 75.4322 23.7225C76.0772 23.3775 76.5872 22.8975 76.9622 22.2825C77.3372 21.6675 77.5247 20.96 77.5247 20.16C77.5247 19.355 77.3372 18.6475 76.9622 18.0375C76.5872 17.4225 76.0772 16.9425 75.4322 16.5975C74.7922 16.2525 74.0722 16.08 73.2722 16.08C72.4722 16.08 71.7497 16.2525 71.1047 16.5975C70.4647 16.9425 69.9572 17.4225 69.5822 18.0375C69.2072 18.6475 69.0197 19.355 69.0197 20.16C69.0197 20.96 69.2072 21.6675 69.5822 22.2825C69.9572 22.8975 70.4647 23.3775 71.1047 23.7225C71.7497 24.0675 72.4722 24.24 73.2722 24.24ZM73.2722 23.265C72.6722 23.265 72.1372 23.1325 71.6672 22.8675C71.1972 22.6025 70.8272 22.2375 70.5572 21.7725C70.2872 21.3025 70.1522 20.765 70.1522 20.16C70.1522 19.555 70.2872 19.02 70.5572 18.555C70.8272 18.085 71.1972 17.7175 71.6672 17.4525C72.1372 17.1875 72.6722 17.055 73.2722 17.055C73.8722 17.055 74.4072 17.1875 74.8772 17.4525C75.3472 17.7175 75.7172 18.085 75.9872 18.555C76.2572 19.02 76.3922 19.555 76.3922 20.16C76.3922 20.765 76.2572 21.3025 75.9872 21.7725C75.7172 22.2375 75.3472 22.6025 74.8772 22.8675C74.4072 23.1325 73.8722 23.265 73.2722 23.265Z" fill="white"/>
<path d="M28.743 19.331L19.743 9.331C19.364 8.909 18.636 8.909 18.257 9.331L9.257 19.331C8.993 19.624 8.926 20.046 9.087 20.407C9.248 20.768 9.605 21 10 21H12V28C12 28.552 12.448 29 13 29H25C25.553 29 26 28.552 26 28V21H28C28.395 21 28.753 20.768 28.913 20.407C29.074 20.046 29.008 19.625 28.743 19.331ZM19 23C17.344 23 16 21.657 16 20C16 18.343 17.344 17 19 17C20.657 17 22 18.343 22 20C22 21.657 20.657 23 19 23Z" fill="white"/>
</svg>
