<svg width="165" height="37" viewBox="0 0 165 37" fill="none" xmlns="http://www.w3.org/2000/svg">
<rect width="165" height="37" rx="5" fill="#F2F2F2"/>
<path d="M38.0175 23H39.1575V17.3H45.915V23H47.0475V10.625H45.915V16.295H39.1575V10.625H38.0175V23ZM53.9564 23.24C54.6364 23.24 55.2539 23.075 55.8089 22.745C56.3639 22.415 56.8064 21.96 57.1364 21.38V23H58.2314V15.32H57.1364V16.9175C56.8464 16.3425 56.4164 15.8925 55.8464 15.5675C55.2814 15.2425 54.6514 15.08 53.9564 15.08C53.2264 15.08 52.5714 15.2575 51.9914 15.6125C51.4164 15.9625 50.9614 16.445 50.6264 17.06C50.2964 17.675 50.1314 18.3725 50.1314 19.1525C50.1314 19.9425 50.2989 20.645 50.6339 21.26C50.9739 21.875 51.4314 22.36 52.0064 22.715C52.5814 23.065 53.2314 23.24 53.9564 23.24ZM54.2264 22.2875C53.6564 22.2875 53.1464 22.1525 52.6964 21.8825C52.2514 21.6125 51.9014 21.2425 51.6464 20.7725C51.3914 20.3025 51.2639 19.765 51.2639 19.16C51.2639 18.55 51.3914 18.01 51.6464 17.54C51.9014 17.07 52.2514 16.7025 52.6964 16.4375C53.1414 16.1675 53.6514 16.0325 54.2264 16.0325C54.8014 16.0325 55.3114 16.1675 55.7564 16.4375C56.2014 16.7025 56.5489 17.07 56.7989 17.54C57.0539 18.01 57.1814 18.55 57.1814 19.16C57.1814 19.765 57.0539 20.305 56.7989 20.78C56.5439 21.25 56.1939 21.62 55.7489 21.89C55.3089 22.155 54.8014 22.2875 54.2264 22.2875ZM65.0302 23.24C65.5402 23.24 66.0202 23.1625 66.4702 23.0075C66.9202 22.8575 67.3127 22.6525 67.6477 22.3925L67.1902 21.6575C66.6402 22.0925 65.9652 22.31 65.1652 22.31C64.5402 22.31 63.9877 22.1725 63.5077 21.8975C63.0327 21.6225 62.6602 21.2475 62.3902 20.7725C62.1202 20.2975 61.9852 19.76 61.9852 19.16C61.9852 18.57 62.1177 18.0375 62.3827 17.5625C62.6477 17.0875 63.0177 16.71 63.4927 16.43C63.9727 16.15 64.5277 16.01 65.1577 16.01C65.9527 16.01 66.6327 16.2275 67.1977 16.6625L67.6477 15.9275C67.3177 15.6625 66.9252 15.455 66.4702 15.305C66.0152 15.155 65.5352 15.08 65.0302 15.08C64.2452 15.08 63.5377 15.26 62.9077 15.62C62.2777 15.975 61.7802 16.46 61.4152 17.075C61.0502 17.69 60.8677 18.385 60.8677 19.16C60.8677 19.94 61.0527 20.6375 61.4227 21.2525C61.7977 21.8675 62.3002 22.3525 62.9302 22.7075C63.5602 23.0625 64.2602 23.24 65.0302 23.24ZM73.6295 23.24C74.3945 23.24 75.0895 23.075 75.7145 22.745C76.3445 22.415 76.842 21.9525 77.207 21.3575L76.397 20.9225C75.757 21.8625 74.8495 22.3325 73.6745 22.3325C73.0645 22.3325 72.522 22.2025 72.047 21.9425C71.572 21.6775 71.1995 21.315 70.9295 20.855C70.6645 20.39 70.532 19.86 70.532 19.265H77.447C77.457 19.21 77.462 19.1625 77.462 19.1225C77.467 19.0825 77.4695 19.035 77.4695 18.98C77.4495 18.215 77.2645 17.54 76.9145 16.955C76.5695 16.365 76.0995 15.905 75.5045 15.575C74.9145 15.245 74.2395 15.08 73.4795 15.08C72.9245 15.08 72.402 15.185 71.912 15.395C71.427 15.605 70.9995 15.8975 70.6295 16.2725C70.2595 16.6475 69.9695 17.085 69.7595 17.585C69.5495 18.08 69.4445 18.615 69.4445 19.19C69.4445 19.955 69.6245 20.645 69.9845 21.26C70.3495 21.87 70.847 22.3525 71.477 22.7075C72.107 23.0625 72.8245 23.24 73.6295 23.24ZM70.592 18.44C70.657 17.955 70.822 17.53 71.087 17.165C71.357 16.795 71.6995 16.5075 72.1145 16.3025C72.5295 16.0925 72.9895 15.9875 73.4945 15.9875C73.9895 15.9875 74.442 16.0925 74.852 16.3025C75.262 16.5125 75.602 16.8025 75.872 17.1725C76.142 17.5425 76.3095 17.965 76.3745 18.44H70.592ZM80.0197 23H81.1147V17.93C81.1147 17.605 81.2122 17.3 81.4072 17.015C81.6072 16.725 81.8647 16.49 82.1797 16.31C82.4997 16.13 82.8347 16.04 83.1847 16.04C83.5697 16.04 83.9247 16.1175 84.2497 16.2725L84.6997 15.35C84.3247 15.17 83.8947 15.08 83.4097 15.08C82.3747 15.08 81.6097 15.5375 81.1147 16.4525V15.32H80.0197V23ZM90.5813 26.9H91.6763V21.38C92.0013 21.96 92.4413 22.415 92.9963 22.745C93.5563 23.075 94.1738 23.24 94.8488 23.24C95.5838 23.24 96.2388 23.0625 96.8138 22.7075C97.3938 22.3525 97.8488 21.8675 98.1788 21.2525C98.5138 20.6375 98.6813 19.94 98.6813 19.16C98.6813 18.375 98.5138 17.6775 98.1788 17.0675C97.8438 16.4525 97.3863 15.9675 96.8063 15.6125C96.2313 15.2575 95.5738 15.08 94.8338 15.08C94.1538 15.08 93.5338 15.2425 92.9738 15.5675C92.4188 15.8875 91.9863 16.335 91.6763 16.91V15.32H90.5813V26.9ZM94.5938 22.2875C94.0188 22.2875 93.5088 22.155 93.0638 21.89C92.6188 21.62 92.2688 21.25 92.0138 20.78C91.7588 20.305 91.6313 19.765 91.6313 19.16C91.6313 18.55 91.7588 18.01 92.0138 17.54C92.2688 17.07 92.6188 16.7025 93.0638 16.4375C93.5088 16.1675 94.0188 16.0325 94.5938 16.0325C95.1688 16.0325 95.6763 16.1675 96.1163 16.4375C96.5613 16.7025 96.9113 17.0725 97.1663 17.5475C97.4213 18.0175 97.5488 18.5575 97.5488 19.1675C97.5488 19.7725 97.4213 20.31 97.1663 20.78C96.9113 21.25 96.5613 21.62 96.1163 21.89C95.6763 22.155 95.1688 22.2875 94.5938 22.2875ZM104.963 23.24C105.728 23.24 106.423 23.075 107.048 22.745C107.678 22.415 108.175 21.9525 108.54 21.3575L107.73 20.9225C107.09 21.8625 106.183 22.3325 105.008 22.3325C104.398 22.3325 103.855 22.2025 103.38 21.9425C102.905 21.6775 102.533 21.315 102.263 20.855C101.998 20.39 101.865 19.86 101.865 19.265H108.78C108.79 19.21 108.795 19.1625 108.795 19.1225C108.8 19.0825 108.803 19.035 108.803 18.98C108.783 18.215 108.598 17.54 108.248 16.955C107.903 16.365 107.433 15.905 106.838 15.575C106.248 15.245 105.573 15.08 104.813 15.08C104.258 15.08 103.735 15.185 103.245 15.395C102.76 15.605 102.333 15.8975 101.963 16.2725C101.593 16.6475 101.303 17.085 101.093 17.585C100.883 18.08 100.778 18.615 100.778 19.19C100.778 19.955 100.958 20.645 101.318 21.26C101.683 21.87 102.18 22.3525 102.81 22.7075C103.44 23.0625 104.158 23.24 104.963 23.24ZM101.925 18.44C101.99 17.955 102.155 17.53 102.42 17.165C102.69 16.795 103.033 16.5075 103.448 16.3025C103.863 16.0925 104.323 15.9875 104.828 15.9875C105.323 15.9875 105.775 16.0925 106.185 16.3025C106.595 16.5125 106.935 16.8025 107.205 17.1725C107.475 17.5425 107.643 17.965 107.708 18.44H101.925ZM114.66 23.24C115.34 23.24 115.957 23.075 116.512 22.745C117.072 22.415 117.515 21.96 117.84 21.38V23H118.935V10.0925H117.84V16.9175C117.525 16.3425 117.09 15.8925 116.535 15.5675C115.98 15.2425 115.36 15.08 114.675 15.08C113.94 15.08 113.282 15.2575 112.702 15.6125C112.127 15.9625 111.672 16.445 111.337 17.06C111.002 17.675 110.835 18.375 110.835 19.16C110.835 19.95 111.002 20.6525 111.337 21.2675C111.677 21.8825 112.135 22.365 112.71 22.715C113.29 23.065 113.94 23.24 114.66 23.24ZM114.922 22.2875C114.347 22.2875 113.837 22.1525 113.392 21.8825C112.947 21.6125 112.597 21.2425 112.342 20.7725C112.092 20.3025 111.967 19.7675 111.967 19.1675C111.967 18.5575 112.095 18.0175 112.35 17.5475C112.605 17.0725 112.955 16.7025 113.4 16.4375C113.845 16.1675 114.355 16.0325 114.93 16.0325C115.505 16.0325 116.012 16.1675 116.452 16.4375C116.897 16.7025 117.247 17.0725 117.502 17.5475C117.757 18.0175 117.885 18.5575 117.885 19.1675C117.885 19.7725 117.757 20.31 117.502 20.78C117.247 21.25 116.897 21.62 116.452 21.89C116.007 22.155 115.497 22.2875 114.922 22.2875ZM122.703 13.7825C122.903 13.7825 123.073 13.7125 123.213 13.5725C123.353 13.4325 123.423 13.2625 123.423 13.0625C123.423 12.8625 123.353 12.695 123.213 12.56C123.073 12.42 122.903 12.35 122.703 12.35C122.503 12.35 122.333 12.42 122.193 12.56C122.058 12.695 121.991 12.8625 121.991 13.0625C121.991 13.2625 122.058 13.4325 122.193 13.5725C122.333 13.7125 122.503 13.7825 122.703 13.7825ZM122.156 23H123.251V15.32H122.156V23ZM129.762 23.24C130.442 23.24 131.06 23.075 131.615 22.745C132.175 22.415 132.617 21.96 132.942 21.38V23H134.037V10.0925H132.942V16.9175C132.627 16.3425 132.192 15.8925 131.637 15.5675C131.082 15.2425 130.462 15.08 129.777 15.08C129.042 15.08 128.385 15.2575 127.805 15.6125C127.23 15.9625 126.775 16.445 126.44 17.06C126.105 17.675 125.937 18.375 125.937 19.16C125.937 19.95 126.105 20.6525 126.44 21.2675C126.78 21.8825 127.237 22.365 127.812 22.715C128.392 23.065 129.042 23.24 129.762 23.24ZM130.025 22.2875C129.45 22.2875 128.94 22.1525 128.495 21.8825C128.05 21.6125 127.7 21.2425 127.445 20.7725C127.195 20.3025 127.07 19.7675 127.07 19.1675C127.07 18.5575 127.197 18.0175 127.452 17.5475C127.707 17.0725 128.057 16.7025 128.502 16.4375C128.947 16.1675 129.457 16.0325 130.032 16.0325C130.607 16.0325 131.115 16.1675 131.555 16.4375C132 16.7025 132.35 17.0725 132.605 17.5475C132.86 18.0175 132.987 18.5575 132.987 19.1675C132.987 19.7725 132.86 20.31 132.605 20.78C132.35 21.25 132 21.62 131.555 21.89C131.11 22.155 130.6 22.2875 130.025 22.2875ZM140.933 23.24C141.733 23.24 142.453 23.0675 143.093 22.7225C143.738 22.3775 144.248 21.8975 144.623 21.2825C144.998 20.6675 145.186 19.96 145.186 19.16C145.186 18.355 144.998 17.6475 144.623 17.0375C144.248 16.4225 143.738 15.9425 143.093 15.5975C142.453 15.2525 141.733 15.08 140.933 15.08C140.133 15.08 139.411 15.2525 138.766 15.5975C138.126 15.9425 137.618 16.4225 137.243 17.0375C136.868 17.6475 136.681 18.355 136.681 19.16C136.681 19.96 136.868 20.6675 137.243 21.2825C137.618 21.8975 138.126 22.3775 138.766 22.7225C139.411 23.0675 140.133 23.24 140.933 23.24ZM140.933 22.265C140.333 22.265 139.798 22.1325 139.328 21.8675C138.858 21.6025 138.488 21.2375 138.218 20.7725C137.948 20.3025 137.813 19.765 137.813 19.16C137.813 18.555 137.948 18.02 138.218 17.555C138.488 17.085 138.858 16.7175 139.328 16.4525C139.798 16.1875 140.333 16.055 140.933 16.055C141.533 16.055 142.068 16.1875 142.538 16.4525C143.008 16.7175 143.378 17.085 143.648 17.555C143.918 18.02 144.053 18.555 144.053 19.16C144.053 19.765 143.918 20.3025 143.648 20.7725C143.378 21.2375 143.008 21.6025 142.538 21.8675C142.068 22.1325 141.533 22.265 140.933 22.265Z" fill="black"/>
<path d="M13.4705 15.75C13.4705 16.2586 13.6687 16.7374 14.0291 17.0974C14.1098 17.178 14.2157 17.2186 14.3217 17.2186C14.4276 17.2186 14.5335 17.178 14.6142 17.0974C14.776 16.9356 14.776 16.674 14.6142 16.5123C14.4106 16.3087 14.2981 16.038 14.2981 15.75C14.2981 15.462 14.4102 15.1914 14.6142 14.9878C15.357 14.2451 15.357 13.036 14.6142 12.2932C14.4524 12.1314 14.1909 12.1314 14.0291 12.2932C13.8673 12.455 13.8673 12.7165 14.0291 12.8783C14.4491 13.2987 14.4491 13.9823 14.0291 14.4027C13.6687 14.7632 13.4705 15.2415 13.4705 15.75Z" fill="#2D2D2D"/>
<path d="M8.96552 15.75C8.96552 16.2586 9.16373 16.7374 9.52414 17.0974C9.60483 17.178 9.71076 17.2186 9.81669 17.2186C9.92262 17.2186 10.0286 17.178 10.1092 17.0974C10.271 16.9356 10.271 16.674 10.1092 16.5123C9.90524 16.3087 9.79311 16.038 9.79311 15.75C9.79311 15.462 9.90524 15.1914 10.1092 14.9878C10.852 14.2451 10.852 13.036 10.1092 12.2932C9.94745 12.1314 9.68593 12.1314 9.52414 12.2932C9.36235 12.455 9.36235 12.7165 9.52414 12.8783C9.94414 13.2987 9.94414 13.9823 9.52414 14.4027C9.16373 14.7632 8.96552 15.2415 8.96552 15.75Z" fill="#2D2D2D"/>
<path d="M11.4015 14.5087C11.4015 15.0173 11.5997 15.496 11.9601 15.856C12.0408 15.9367 12.1468 15.9773 12.2527 15.9773C12.3586 15.9773 12.4646 15.9367 12.5452 15.856C12.707 15.6942 12.707 15.4327 12.5452 15.2709C12.3417 15.0673 12.2291 14.7967 12.2291 14.5087C12.2291 14.2207 12.3412 13.9501 12.5452 13.7465C13.288 13.0037 13.288 11.7946 12.5452 11.0519C12.3835 10.8901 12.1219 10.8901 11.9601 11.0519C11.7983 11.2137 11.7983 11.4752 11.9601 11.637C12.3801 12.0574 12.3801 12.741 11.9601 13.1614C11.5997 13.5218 11.4015 14.0002 11.4015 14.5087Z" fill="#2D2D2D"/>
<path d="M27.9363 26.4868C27.9417 26.421 27.9408 26.3548 27.9251 26.2886L24.7166 18.0243L26.7466 9.78855C26.7499 9.77448 26.7454 9.76042 26.7474 9.74635C26.7499 9.72731 26.7586 9.70993 26.7586 9.68966V8.44828C26.7586 8.21945 26.5737 8.03448 26.3448 8.03448H5.65517C5.42676 8.03448 5.24138 8.21945 5.24138 8.44828V9.68966C5.24138 9.91848 5.42676 10.1035 5.65517 10.1035H5.71683L7.45352 17.7446C7.38152 17.8174 7.3211 17.9026 7.29048 18.0061L4.09186 26.2339L4.0749 26.289C4.05669 26.3663 4.05669 26.4437 4.06703 26.5199C4.02814 26.5923 4 26.6717 4 26.7599V29.308C4 29.6705 4.29503 29.9655 4.65752 29.9655H27.3425C27.705 29.9655 28 29.6705 28 29.308V26.7081C28 26.6266 27.9735 26.5538 27.9363 26.4868ZM8.03324 18.3793H10.4171C9.24483 18.7633 8.2389 19.2669 7.45766 19.8603L8.03324 18.3793ZM24.5423 19.8599C23.7611 19.2665 22.7552 18.7633 21.5829 18.3793H23.9668L24.5423 19.8599ZM12.4132 24.0872C12.4753 23.7909 12.7323 23.5844 13.0219 23.5728C13.1283 23.3556 13.3497 23.2141 13.5921 23.2095C13.6844 23.0775 13.8491 23.0059 14.0163 23.0419C14.2401 23.0887 14.3833 23.3084 14.3361 23.5323C14.2741 23.8286 14.0171 24.035 13.7274 24.0466C13.6211 24.2639 13.3997 24.4054 13.1572 24.4099C13.0807 24.5192 12.9549 24.5866 12.8188 24.5866C12.7906 24.5866 12.7621 24.5837 12.7331 24.5779C12.5092 24.5303 12.3661 24.311 12.4132 24.0872ZM11.0345 22.1034C10.1063 22.1034 9.37931 21.5585 9.37931 20.8621C9.37931 20.1657 10.1063 19.6207 11.0345 19.6207C11.9626 19.6207 12.6897 20.1657 12.6897 20.8621C12.6897 21.5585 11.9626 22.1034 11.0345 22.1034ZM15.1724 21.2759C14.2443 21.2759 13.5172 20.7309 13.5172 20.0345C13.5172 19.3381 14.2443 18.7931 15.1724 18.7931C16.1006 18.7931 16.8276 19.3381 16.8276 20.0345C16.8276 20.7309 16.1006 21.2759 15.1724 21.2759ZM15.2924 22.7241C15.2303 22.7432 15.167 22.7523 15.1037 22.7523C14.9982 22.7523 14.8939 22.7262 14.7979 22.6745C14.6932 22.6182 14.608 22.5363 14.5484 22.437C14.4346 22.4386 14.3175 22.4163 14.2128 22.36C14.104 22.3017 14.0159 22.2152 13.9563 22.1105C13.7966 22.0927 13.655 21.9822 13.6058 21.8188C13.5396 21.6003 13.6633 21.3694 13.8818 21.3032C14.0473 21.2523 14.2232 21.2705 14.3763 21.3524C14.481 21.4087 14.5666 21.4906 14.6262 21.5899C14.8712 21.5903 15.0979 21.7058 15.2183 21.916C15.3781 21.9338 15.5196 22.0443 15.5688 22.2077C15.6346 22.427 15.5109 22.6579 15.2924 22.7241ZM14.3448 25.4138C14.3448 24.7174 15.0719 24.1724 16 24.1724C16.9281 24.1724 17.6552 24.7174 17.6552 25.4138C17.6552 26.1102 16.9281 26.6552 16 26.6552C15.0719 26.6552 14.3448 26.1102 14.3448 25.4138ZM18.0892 23.9655C18.0272 23.9846 17.9639 23.9937 17.9006 23.9937C17.795 23.9937 17.6908 23.9676 17.5948 23.9159C17.4901 23.8596 17.4048 23.7777 17.3452 23.6783C17.231 23.68 17.1143 23.6577 17.0097 23.6014C16.9008 23.543 16.8127 23.4566 16.7531 23.3519C16.5934 23.3341 16.4519 23.2236 16.4026 23.0601C16.3364 22.8417 16.4601 22.6108 16.6786 22.5446C16.8437 22.4932 17.02 22.5115 17.1731 22.5938C17.2778 22.6501 17.3634 22.732 17.423 22.8313C17.6647 22.8354 17.8948 22.9472 18.0152 23.1574C18.1749 23.1752 18.3164 23.2857 18.3657 23.4491C18.4314 23.6684 18.3081 23.8993 18.0892 23.9655ZM17.6552 20.4483C17.6552 19.7519 18.3822 19.2069 19.3103 19.2069C20.2385 19.2069 20.9655 19.7519 20.9655 20.4483C20.9655 21.1447 20.2385 21.6897 19.3103 21.6897C18.3822 21.6897 17.6552 21.1447 17.6552 20.4483ZM20.5517 23.3448C21.4799 23.3448 22.2069 23.8898 22.2069 24.5862C22.2069 25.2826 21.4799 25.8276 20.5517 25.8276C19.6236 25.8276 18.8966 25.2826 18.8966 24.5862C18.8966 23.8898 19.6236 23.3448 20.5517 23.3448ZM21.3793 22.1034C21.3793 21.407 22.1063 20.8621 23.0345 20.8621C23.9626 20.8621 24.6897 21.407 24.6897 22.1034C24.6897 22.7999 23.9626 23.3448 23.0345 23.3448C22.1063 23.3448 21.3793 22.7999 21.3793 22.1034ZM9.7931 22.931C10.7212 22.931 11.4483 23.476 11.4483 24.1724C11.4483 24.8688 10.7212 25.4138 9.7931 25.4138C8.86497 25.4138 8.13793 24.8688 8.13793 24.1724C8.13793 23.476 8.86497 22.931 9.7931 22.931ZM26.1615 24.0251L27.023 26.2414H24.8291C25.4796 25.5793 25.931 24.7774 26.1615 24.0251ZM14.3626 10.1035C14.488 10.8143 15.2531 11.3448 16.2069 11.3448C17.1607 11.3448 17.9254 10.8143 18.0512 10.1035H25.8168L23.9808 17.5517H8.25876L6.56552 10.1035H14.3626ZM5.83848 24.0247C6.06897 24.7774 6.52041 25.5793 7.17131 26.2414H4.97697L5.83848 24.0247ZM27.1724 29.1379H4.82759V27.069H8.224H13.6166C13.9099 28.0497 14.8712 28.7241 16.0004 28.7241C17.1297 28.7241 18.0909 28.0497 18.3843 27.069H23.7768H27.1724V29.1379Z" fill="#2D2D2D"/>
</svg>
