<svg width="165" height="37" viewBox="0 0 165 37" fill="none" xmlns="http://www.w3.org/2000/svg">
<rect width="165" height="37" rx="5" fill="#6FA8FF"/>
<path d="M15.7521 9.608C15.9361 9.568 16.1441 9.544 16.3761 9.536C16.6161 9.52 16.8281 9.512 17.0121 9.512C17.2121 9.512 17.4281 9.52 17.6601 9.536C17.8921 9.544 18.1081 9.568 18.3081 9.608V26C18.1081 26.04 17.8921 26.064 17.6601 26.072C17.4281 26.088 17.2121 26.096 17.0121 26.096C16.8281 26.096 16.6161 26.088 16.3761 26.072C16.1441 26.064 15.9361 26.04 15.7521 26V9.608ZM31.9022 23.468C31.9022 23.884 31.9302 24.28 31.9862 24.656C32.0422 25.024 32.1462 25.348 32.2982 25.628C32.1222 25.78 31.8942 25.904 31.6142 26C31.3342 26.104 31.0422 26.156 30.7382 26.156C30.2582 26.156 29.9182 26.024 29.7182 25.76C29.5262 25.496 29.4302 25.104 29.4302 24.584V18.476C29.4302 17.676 29.3262 17.092 29.1182 16.724C28.9102 16.356 28.5142 16.172 27.9302 16.172C27.4582 16.172 26.9462 16.304 26.3942 16.568C25.8422 16.832 25.3542 17.192 24.9302 17.648V26C24.5942 26.064 24.1822 26.096 23.6942 26.096C23.2062 26.096 22.7902 26.064 22.4462 26V14.204L22.6022 14.048H23.5382C24.0022 14.048 24.3382 14.18 24.5462 14.444C24.7622 14.7 24.8862 15.06 24.9182 15.524C25.4302 15.06 26.0142 14.68 26.6702 14.384C27.3262 14.088 28.0102 13.94 28.7222 13.94C29.4742 13.94 30.0822 14.116 30.5462 14.468C31.0182 14.812 31.3622 15.284 31.5782 15.884C31.7942 16.476 31.9022 17.14 31.9022 17.876V23.468ZM38.3558 26C38.0118 26.064 37.5998 26.096 37.1198 26.096C36.6318 26.096 36.2158 26.064 35.8718 26V17.204C35.8718 16.78 35.7958 16.468 35.6438 16.268C35.4918 16.06 35.2198 15.956 34.8278 15.956H34.5638C34.4918 15.676 34.4558 15.388 34.4558 15.092C34.4558 14.788 34.4918 14.484 34.5638 14.18C34.8678 14.14 35.1518 14.112 35.4158 14.096C35.6878 14.08 35.9118 14.072 36.0878 14.072H36.4118C37.0118 14.072 37.4838 14.264 37.8278 14.648C38.1798 15.024 38.3558 15.544 38.3558 16.208V26ZM35.1398 10.952C35.1398 10.544 35.2118 10.188 35.3558 9.884C35.4998 9.796 35.6958 9.724 35.9438 9.668C36.1918 9.612 36.4358 9.584 36.6758 9.584C36.8998 9.584 37.1438 9.612 37.4078 9.668C37.6718 9.724 37.8678 9.796 37.9958 9.884C38.0678 10.02 38.1198 10.192 38.1518 10.4C38.1918 10.6 38.2118 10.784 38.2118 10.952C38.2118 11.352 38.1398 11.708 37.9958 12.02C37.8758 12.108 37.6798 12.18 37.4078 12.236C37.1438 12.284 36.8998 12.308 36.6758 12.308C36.4358 12.308 36.1878 12.284 35.9318 12.236C35.6838 12.18 35.4918 12.108 35.3558 12.02C35.2118 11.708 35.1398 11.352 35.1398 10.952ZM48.3274 18.728C48.3434 18.208 48.2954 17.724 48.1834 17.276C48.0794 16.82 47.8714 16.452 47.5594 16.172C47.2474 15.884 46.7994 15.74 46.2154 15.74C45.4554 15.74 44.8634 16.108 44.4394 16.844C44.0234 17.58 43.8154 18.68 43.8154 20.144C43.8154 21.584 44.0514 22.636 44.5234 23.3C44.9954 23.956 45.6634 24.284 46.5274 24.284C47.0714 24.284 47.5874 24.16 48.0754 23.912C48.5634 23.656 49.0194 23.372 49.4434 23.06C49.6594 23.196 49.8714 23.412 50.0794 23.708C50.2954 23.996 50.4314 24.276 50.4874 24.548C49.9434 25.076 49.2994 25.504 48.5554 25.832C47.8114 26.152 47.0114 26.312 46.1554 26.312C45.0114 26.312 44.0754 26.028 43.3474 25.46C42.6274 24.892 42.0954 24.14 41.7514 23.204C41.4154 22.268 41.2474 21.248 41.2474 20.144C41.2474 18.664 41.4874 17.46 41.9674 16.532C42.4554 15.604 43.0834 14.924 43.8514 14.492C44.6194 14.06 45.4274 13.844 46.2754 13.844C47.2514 13.844 48.0594 14.032 48.6994 14.408C49.3394 14.776 49.8194 15.24 50.1394 15.8C50.4594 16.352 50.6194 16.904 50.6194 17.456C50.6194 17.88 50.5194 18.216 50.3194 18.464C50.1194 18.712 49.7994 18.836 49.3594 18.836C49.0154 18.836 48.6714 18.8 48.3274 18.728ZM56.4027 26C56.0587 26.064 55.6467 26.096 55.1667 26.096C54.6787 26.096 54.2627 26.064 53.9187 26V17.204C53.9187 16.78 53.8427 16.468 53.6907 16.268C53.5387 16.06 53.2667 15.956 52.8747 15.956H52.6107C52.5387 15.676 52.5027 15.388 52.5027 15.092C52.5027 14.788 52.5387 14.484 52.6107 14.18C52.9147 14.14 53.1987 14.112 53.4627 14.096C53.7347 14.08 53.9587 14.072 54.1347 14.072H54.4587C55.0587 14.072 55.5307 14.264 55.8747 14.648C56.2267 15.024 56.4027 15.544 56.4027 16.208V26ZM53.1867 10.952C53.1867 10.544 53.2587 10.188 53.4027 9.884C53.5467 9.796 53.7427 9.724 53.9907 9.668C54.2387 9.612 54.4827 9.584 54.7227 9.584C54.9467 9.584 55.1907 9.612 55.4547 9.668C55.7187 9.724 55.9147 9.796 56.0427 9.884C56.1147 10.02 56.1667 10.192 56.1987 10.4C56.2387 10.6 56.2587 10.784 56.2587 10.952C56.2587 11.352 56.1867 11.708 56.0427 12.02C55.9227 12.108 55.7267 12.18 55.4547 12.236C55.1907 12.284 54.9467 12.308 54.7227 12.308C54.4827 12.308 54.2347 12.284 53.9787 12.236C53.7307 12.18 53.5387 12.108 53.4027 12.02C53.2587 11.708 53.1867 11.352 53.1867 10.952ZM59.2823 22.772C59.2823 21.86 59.4823 21.112 59.8823 20.528C60.2903 19.944 60.8383 19.512 61.5263 19.232C62.2223 18.944 63.0023 18.8 63.8663 18.8C64.2023 18.8 64.5703 18.812 64.9703 18.836C65.3783 18.852 65.7823 18.888 66.1823 18.944V18.02C66.1823 17.268 66.0103 16.728 65.6663 16.4C65.3223 16.072 64.8423 15.908 64.2263 15.908C63.6183 15.908 62.9903 16 62.3423 16.184C61.7023 16.36 61.0703 16.572 60.4463 16.82C60.2463 16.62 60.0783 16.348 59.9423 16.004C59.8063 15.652 59.7303 15.316 59.7143 14.996C60.3943 14.708 61.1903 14.452 62.1023 14.228C63.0223 14.004 63.8903 13.892 64.7063 13.892C65.8823 13.892 66.8303 14.22 67.5503 14.876C68.2703 15.532 68.6303 16.548 68.6303 17.924V22.844C68.6303 23.292 68.6703 23.688 68.7503 24.032C68.8383 24.368 69.0223 24.656 69.3023 24.896C69.2303 25.12 69.1063 25.36 68.9303 25.616C68.7543 25.864 68.5663 26.052 68.3663 26.18C67.8703 26.084 67.4663 25.9 67.1543 25.628C66.8503 25.356 66.6183 25.036 66.4583 24.668C66.0263 25.084 65.5063 25.464 64.8983 25.808C64.2903 26.144 63.5943 26.312 62.8103 26.312C62.0183 26.312 61.3583 26.136 60.8303 25.784C60.3103 25.432 59.9223 24.984 59.6663 24.44C59.4103 23.896 59.2823 23.34 59.2823 22.772ZM61.7423 22.604C61.7423 23.092 61.8823 23.508 62.1623 23.852C62.4423 24.188 62.8423 24.356 63.3623 24.356C63.8103 24.356 64.2863 24.232 64.7903 23.984C65.2943 23.736 65.7583 23.372 66.1823 22.892V20.624C65.8223 20.584 65.4543 20.556 65.0783 20.54C64.7103 20.524 64.3583 20.516 64.0223 20.516C63.2943 20.516 62.7303 20.7 62.3303 21.068C61.9383 21.436 61.7423 21.948 61.7423 22.604ZM71.6023 15.296C71.6583 15.072 71.7743 14.828 71.9503 14.564C72.1263 14.3 72.3103 14.104 72.5023 13.976C73.0783 14.104 73.5463 14.352 73.9063 14.72C74.2743 15.088 74.5423 15.552 74.7103 16.112C74.9903 15.504 75.3823 15 75.8863 14.6C76.3903 14.192 77.0423 13.988 77.8423 13.988C78.0583 13.988 78.2663 14 78.4663 14.024C78.6663 14.048 78.8823 14.08 79.1143 14.12C79.1143 14.456 79.0663 14.848 78.9703 15.296C78.8823 15.736 78.7303 16.124 78.5143 16.46C78.3543 16.42 78.1903 16.396 78.0223 16.388C77.8623 16.372 77.7023 16.36 77.5423 16.352C76.8943 16.352 76.3623 16.536 75.9463 16.904C75.5383 17.264 75.2103 17.688 74.9623 18.176V26C74.6263 26.064 74.2143 26.096 73.7263 26.096C73.2463 26.096 72.8343 26.064 72.4903 26V17.768C72.4903 17.128 72.3943 16.604 72.2023 16.196C72.0103 15.788 71.8103 15.488 71.6023 15.296ZM85.2437 24.524C85.2757 24.148 85.3957 23.78 85.6037 23.42C85.8197 23.052 86.0557 22.764 86.3117 22.556C87.0077 23.012 87.7797 23.396 88.6277 23.708C89.4757 24.02 90.3117 24.176 91.1357 24.176C92.1037 24.176 92.8557 23.968 93.3917 23.552C93.9277 23.128 94.1957 22.584 94.1957 21.92C94.1957 21.36 94.0077 20.864 93.6317 20.432C93.2557 19.992 92.7157 19.624 92.0117 19.328L89.1197 18.116C88.1037 17.692 87.2957 17.148 86.6957 16.484C86.1037 15.812 85.8077 14.964 85.8077 13.94C85.8077 13.068 86.0357 12.284 86.4917 11.588C86.9557 10.884 87.5957 10.328 88.4117 9.92C89.2277 9.504 90.1717 9.296 91.2437 9.296C92.2437 9.296 93.1837 9.424 94.0637 9.68C94.9437 9.936 95.6957 10.22 96.3197 10.532C96.3117 10.9 96.2197 11.268 96.0437 11.636C95.8757 11.996 95.6597 12.296 95.3957 12.536C94.7637 12.224 94.0757 11.96 93.3317 11.744C92.5877 11.52 91.9077 11.408 91.2917 11.408C90.3957 11.408 89.6917 11.624 89.1797 12.056C88.6757 12.488 88.4237 13.02 88.4237 13.652C88.4237 14.18 88.6077 14.612 88.9757 14.948C89.3437 15.284 89.8237 15.576 90.4157 15.824L93.2837 17.012C94.3077 17.436 95.1597 18.02 95.8397 18.764C96.5277 19.508 96.8717 20.42 96.8717 21.5C96.8717 22.42 96.6557 23.244 96.2237 23.972C95.7997 24.692 95.1517 25.264 94.2797 25.688C93.4077 26.104 92.3117 26.312 90.9917 26.312C89.9917 26.312 88.9837 26.152 87.9677 25.832C86.9517 25.512 86.0437 25.076 85.2437 24.524ZM108.348 24.956C107.772 25.364 107.088 25.692 106.296 25.94C105.504 26.188 104.692 26.312 103.86 26.312C102.908 26.312 102.112 26.144 101.472 25.808C100.832 25.464 100.324 25.004 99.9477 24.428C99.5717 23.844 99.3037 23.18 99.1437 22.436C98.9837 21.684 98.9037 20.904 98.9037 20.096C98.9037 18.904 99.0877 17.836 99.4557 16.892C99.8317 15.948 100.388 15.204 101.124 14.66C101.868 14.116 102.796 13.844 103.908 13.844C104.948 13.844 105.82 14.072 106.524 14.528C107.236 14.984 107.772 15.6 108.132 16.376C108.492 17.144 108.672 18.004 108.672 18.956C108.672 19.34 108.656 19.672 108.624 19.952C108.6 20.224 108.556 20.524 108.492 20.852H101.472C101.52 21.852 101.74 22.676 102.132 23.324C102.524 23.972 103.224 24.296 104.232 24.296C104.832 24.296 105.412 24.208 105.972 24.032C106.532 23.856 107.068 23.64 107.58 23.384C107.78 23.576 107.948 23.824 108.084 24.128C108.228 24.432 108.316 24.708 108.348 24.956ZM103.908 15.668C103.14 15.668 102.552 15.968 102.144 16.568C101.744 17.168 101.52 18 101.472 19.064H106.296V18.752C106.296 17.912 106.112 17.188 105.744 16.58C105.376 15.972 104.764 15.668 103.908 15.668ZM110.615 25.124C110.623 24.844 110.707 24.532 110.867 24.188C111.027 23.844 111.215 23.576 111.431 23.384C111.935 23.664 112.475 23.912 113.051 24.128C113.627 24.344 114.211 24.452 114.803 24.452C115.459 24.452 115.975 24.312 116.351 24.032C116.735 23.752 116.931 23.392 116.939 22.952C116.939 22.232 116.439 21.688 115.439 21.32L114.047 20.804C113.215 20.5 112.499 20.08 111.899 19.544C111.299 19.008 110.999 18.288 110.999 17.384C110.999 16.648 111.183 16.016 111.551 15.488C111.927 14.96 112.435 14.556 113.075 14.276C113.715 13.988 114.439 13.844 115.247 13.844C115.895 13.844 116.583 13.928 117.311 14.096C118.047 14.264 118.663 14.468 119.159 14.708C119.167 15.012 119.103 15.344 118.967 15.704C118.831 16.064 118.655 16.336 118.439 16.52C118.015 16.336 117.523 16.16 116.963 15.992C116.403 15.824 115.827 15.74 115.235 15.74C114.707 15.74 114.283 15.868 113.963 16.124C113.651 16.372 113.495 16.708 113.495 17.132C113.495 17.468 113.615 17.748 113.855 17.972C114.103 18.196 114.479 18.4 114.983 18.584L116.459 19.124C117.355 19.452 118.087 19.908 118.655 20.492C119.223 21.068 119.507 21.816 119.507 22.736C119.507 23.848 119.075 24.724 118.211 25.364C117.355 25.996 116.219 26.312 114.803 26.312C113.955 26.312 113.175 26.192 112.463 25.952C111.751 25.712 111.135 25.436 110.615 25.124ZM125.098 26C124.754 26.064 124.342 26.096 123.862 26.096C123.374 26.096 122.958 26.064 122.614 26V17.204C122.614 16.78 122.538 16.468 122.386 16.268C122.234 16.06 121.962 15.956 121.57 15.956H121.306C121.234 15.676 121.198 15.388 121.198 15.092C121.198 14.788 121.234 14.484 121.306 14.18C121.61 14.14 121.894 14.112 122.158 14.096C122.43 14.08 122.654 14.072 122.83 14.072H123.154C123.754 14.072 124.226 14.264 124.57 14.648C124.922 15.024 125.098 15.544 125.098 16.208V26ZM121.882 10.952C121.882 10.544 121.954 10.188 122.098 9.884C122.242 9.796 122.438 9.724 122.686 9.668C122.934 9.612 123.178 9.584 123.418 9.584C123.642 9.584 123.886 9.612 124.15 9.668C124.414 9.724 124.61 9.796 124.738 9.884C124.81 10.02 124.862 10.192 124.894 10.4C124.934 10.6 124.954 10.784 124.954 10.952C124.954 11.352 124.882 11.708 124.738 12.02C124.618 12.108 124.422 12.18 124.15 12.236C123.886 12.284 123.642 12.308 123.418 12.308C123.178 12.308 122.93 12.284 122.674 12.236C122.426 12.18 122.234 12.108 122.098 12.02C121.954 11.708 121.882 11.352 121.882 10.952ZM138.358 20.072C138.358 21.304 138.162 22.388 137.77 23.324C137.378 24.26 136.798 24.992 136.03 25.52C135.262 26.048 134.306 26.312 133.162 26.312C132.026 26.312 131.074 26.048 130.306 25.52C129.538 24.984 128.958 24.248 128.566 23.312C128.182 22.368 127.99 21.288 127.99 20.072C127.99 18.856 128.186 17.78 128.578 16.844C128.97 15.9 129.55 15.164 130.318 14.636C131.086 14.108 132.034 13.844 133.162 13.844C134.314 13.844 135.274 14.112 136.042 14.648C136.81 15.176 137.386 15.912 137.77 16.856C138.162 17.792 138.358 18.864 138.358 20.072ZM130.546 20.072C130.546 20.824 130.622 21.532 130.774 22.196C130.926 22.852 131.194 23.388 131.578 23.804C131.962 24.212 132.498 24.416 133.186 24.416C133.866 24.416 134.394 24.212 134.77 23.804C135.154 23.388 135.422 22.852 135.574 22.196C135.726 21.532 135.802 20.824 135.802 20.072C135.802 19.336 135.726 18.636 135.574 17.972C135.422 17.308 135.154 16.768 134.77 16.352C134.394 15.936 133.866 15.728 133.186 15.728C132.498 15.728 131.962 15.936 131.578 16.352C131.194 16.768 130.926 17.308 130.774 17.972C130.622 18.636 130.546 19.336 130.546 20.072ZM134.806 8.264C135.174 8.384 135.526 8.6 135.862 8.912C136.198 9.216 136.43 9.544 136.558 9.896L132.454 13.088C132.23 13.024 132.014 12.9 131.806 12.716C131.606 12.524 131.458 12.316 131.362 12.092L134.806 8.264ZM150.73 23.468C150.73 23.884 150.758 24.28 150.814 24.656C150.87 25.024 150.974 25.348 151.126 25.628C150.95 25.78 150.722 25.904 150.442 26C150.162 26.104 149.87 26.156 149.566 26.156C149.086 26.156 148.746 26.024 148.546 25.76C148.354 25.496 148.258 25.104 148.258 24.584V18.476C148.258 17.676 148.154 17.092 147.946 16.724C147.738 16.356 147.342 16.172 146.758 16.172C146.286 16.172 145.774 16.304 145.222 16.568C144.67 16.832 144.182 17.192 143.758 17.648V26C143.422 26.064 143.01 26.096 142.522 26.096C142.034 26.096 141.618 26.064 141.274 26V14.204L141.43 14.048H142.366C142.83 14.048 143.166 14.18 143.374 14.444C143.59 14.7 143.714 15.06 143.746 15.524C144.258 15.06 144.842 14.68 145.498 14.384C146.154 14.088 146.838 13.94 147.55 13.94C148.302 13.94 148.91 14.116 149.374 14.468C149.846 14.812 150.19 15.284 150.406 15.884C150.622 16.476 150.73 17.14 150.73 17.876V23.468Z" fill="white"/>
</svg>
