<svg width="167" height="119" viewBox="0 0 167 119" fill="none" xmlns="http://www.w3.org/2000/svg">
<rect width="167" height="26" fill="#F2F2F2"/>
<path d="M52.2161 20C50.9694 20 50.0128 19.7433 49.3461 19.23C48.6861 18.71 48.2961 17.9 48.1761 16.8C48.1494 16.52 48.2094 16.3033 48.3561 16.15C48.5028 15.9967 48.7161 15.92 48.9961 15.92C49.5094 15.92 49.7961 16.2 49.8561 16.76C49.9361 17.3667 50.1528 17.78 50.5061 18C50.8594 18.2133 51.4294 18.32 52.2161 18.32H53.8761C54.4961 18.32 54.9794 18.25 55.3261 18.11C55.6794 17.97 55.9261 17.7267 56.0661 17.38C56.2061 17.0333 56.2761 16.5467 56.2761 15.92V7.28C56.2761 6.72 56.5561 6.44 57.1161 6.44C57.6761 6.44 57.9561 6.72 57.9561 7.28V15.92C57.9561 17.3267 57.6261 18.36 56.9661 19.02C56.3061 19.6733 55.2761 20 53.8761 20H52.2161ZM70.2575 9.86C70.8175 9.86 71.0975 10.14 71.0975 10.7V19.16C71.0975 19.72 70.8175 20 70.2575 20C69.6975 20 69.4175 19.72 69.4175 19.16V18.83C68.7108 19.61 67.6708 20 66.2975 20H65.7375C64.4042 20 63.4175 19.68 62.7775 19.04C62.1375 18.4 61.8175 17.4133 61.8175 16.08V10.7C61.8175 10.14 62.0975 9.86 62.6575 9.86C63.2175 9.86 63.4975 10.14 63.4975 10.7V16.08C63.4975 16.9533 63.6542 17.5467 63.9675 17.86C64.2875 18.1667 64.8775 18.32 65.7375 18.32H66.2975C67.0975 18.32 67.7942 18.23 68.3875 18.05C68.9808 17.8633 69.3242 17.5733 69.4175 17.18V10.7C69.4175 10.14 69.6975 9.86 70.2575 9.86ZM76.4597 15.62V16.1C76.4597 16.96 76.6164 17.5467 76.9297 17.86C77.243 18.1667 77.833 18.32 78.6997 18.32H80.3397C81.0197 18.32 81.523 18.2567 81.8497 18.13C82.1764 18.0033 82.393 17.78 82.4997 17.46C82.573 17.2067 82.673 17.0133 82.7997 16.88C82.933 16.7467 83.133 16.68 83.3997 16.68C83.6797 16.68 83.893 16.7533 84.0397 16.9C84.1864 17.0467 84.233 17.26 84.1797 17.54C84.033 18.3667 83.6397 18.9833 82.9997 19.39C82.3597 19.7967 81.473 20 80.3397 20H78.6997C77.373 20 76.3864 19.68 75.7397 19.04C75.0997 18.4 74.7797 17.42 74.7797 16.1V13.78C74.7797 12.4267 75.0997 11.4333 75.7397 10.8C76.3864 10.16 77.373 9.84667 78.6997 9.86H80.3397C81.673 9.86 82.6597 10.18 83.2997 10.82C83.9397 11.4533 84.2597 12.44 84.2597 13.78V14.78C84.2597 15.34 83.9797 15.62 83.4197 15.62H76.4597ZM78.6997 11.54C77.833 11.5267 77.243 11.6767 76.9297 11.99C76.6164 12.3033 76.4597 12.9 76.4597 13.78V13.94H82.5797V13.78C82.5797 12.9067 82.423 12.3167 82.1097 12.01C81.803 11.6967 81.213 11.54 80.3397 11.54H78.6997ZM91.5048 19.38C91.4182 19.5867 91.2948 19.7433 91.1348 19.85C90.9815 19.95 90.7848 20 90.5448 20C90.1248 20 89.8248 19.78 89.6448 19.34L86.2448 11.06C86.0115 10.5267 86.1582 10.16 86.6848 9.96C87.1848 9.72667 87.5515 9.87333 87.7848 10.4L90.9648 18.16H90.1848L93.6648 10.36C93.7782 10.14 93.9315 9.99 94.1248 9.91C94.3248 9.83 94.5448 9.84667 94.7848 9.96C95.2782 10.1933 95.4115 10.5667 95.1848 11.08L91.5048 19.38ZM98.8816 15.62V16.1C98.8816 16.96 99.0382 17.5467 99.3516 17.86C99.6649 18.1667 100.255 18.32 101.122 18.32H102.762C103.442 18.32 103.945 18.2567 104.272 18.13C104.598 18.0033 104.815 17.78 104.922 17.46C104.995 17.2067 105.095 17.0133 105.222 16.88C105.355 16.7467 105.555 16.68 105.822 16.68C106.102 16.68 106.315 16.7533 106.462 16.9C106.608 17.0467 106.655 17.26 106.602 17.54C106.455 18.3667 106.062 18.9833 105.422 19.39C104.782 19.7967 103.895 20 102.762 20H101.122C99.7949 20 98.8082 19.68 98.1616 19.04C97.5216 18.4 97.2016 17.42 97.2016 16.1V13.78C97.2016 12.4267 97.5216 11.4333 98.1616 10.8C98.8082 10.16 99.7949 9.84667 101.122 9.86H102.762C104.095 9.86 105.082 10.18 105.722 10.82C106.362 11.4533 106.682 12.44 106.682 13.78V14.78C106.682 15.34 106.402 15.62 105.842 15.62H98.8816ZM101.122 11.54C100.255 11.5267 99.6649 11.6767 99.3516 11.99C99.0382 12.3033 98.8816 12.9 98.8816 13.78V13.94H105.002V13.78C105.002 12.9067 104.845 12.3167 104.532 12.01C104.225 11.6967 103.635 11.54 102.762 11.54H101.122ZM112.737 20C111.891 20 111.221 19.8267 110.727 19.48C110.234 19.1267 109.917 18.6 109.777 17.9C109.731 17.62 109.784 17.4 109.937 17.24C110.097 17.08 110.317 17 110.597 17C110.871 17 111.067 17.07 111.187 17.21C111.314 17.3433 111.417 17.5467 111.497 17.82C111.577 18.02 111.711 18.1533 111.897 18.22C112.091 18.2867 112.371 18.32 112.737 18.32H116.017C116.537 18.32 116.887 18.2367 117.067 18.07C117.247 17.8967 117.337 17.54 117.337 17C117.337 16.4667 117.247 16.1133 117.067 15.94C116.887 15.7667 116.537 15.68 116.017 15.68H112.797C111.837 15.68 111.114 15.4367 110.627 14.95C110.141 14.4633 109.897 13.74 109.897 12.78C109.897 11.8 110.134 11.07 110.607 10.59C111.087 10.1033 111.817 9.86 112.797 9.86H115.917C117.484 9.86 118.411 10.52 118.697 11.84C118.751 12.12 118.697 12.3367 118.537 12.49C118.377 12.6433 118.157 12.72 117.877 12.72C117.617 12.72 117.424 12.6533 117.297 12.52C117.171 12.38 117.071 12.1867 116.997 11.94C116.917 11.78 116.794 11.6733 116.627 11.62C116.467 11.5667 116.231 11.54 115.917 11.54H112.797C112.291 11.54 111.961 11.6167 111.807 11.77C111.654 11.9233 111.577 12.26 111.577 12.78C111.577 13.26 111.657 13.5833 111.817 13.75C111.984 13.9167 112.311 14 112.797 14H116.017C117.017 14 117.767 14.25 118.267 14.75C118.767 15.25 119.017 16 119.017 17C119.017 18.0067 118.767 18.76 118.267 19.26C117.767 19.7533 117.017 20 116.017 20H112.737Z" fill="black"/>
<rect y="31" width="167" height="26" fill="#F2F2F2"/>
<path d="M51.8166 52C51.4699 52 51.1966 51.78 50.9966 51.34L46.0566 39.64C45.9566 39.4067 45.9299 39.2 45.9766 39.02C46.0232 38.8333 46.1766 38.68 46.4366 38.56C46.9832 38.2867 47.3699 38.4267 47.5966 38.98L52.2666 50.04H51.6866L56.2366 38.98C56.4566 38.4333 56.8432 38.2933 57.3966 38.56C57.6299 38.68 57.7732 38.8333 57.8266 39.02C57.8866 39.2 57.8699 39.4067 57.7766 39.64L52.7966 51.34C52.5899 51.78 52.2899 52 51.8966 52H51.8166ZM61.2481 52C60.6881 52 60.4081 51.72 60.4081 51.16V42.7C60.4081 42.14 60.6881 41.86 61.2481 41.86C61.8081 41.86 62.0881 42.14 62.0881 42.7V51.16C62.0881 51.72 61.8081 52 61.2481 52ZM60.9681 40.22C60.3348 40.22 60.0181 39.9 60.0181 39.26V38.67C60.0181 38.0433 60.3348 37.73 60.9681 37.73H61.5481C62.1548 37.73 62.4581 38.0433 62.4581 38.67V39.26C62.4581 39.9 62.1548 40.22 61.5481 40.22H60.9681ZM67.448 47.62V48.1C67.448 48.96 67.6046 49.5467 67.918 49.86C68.2313 50.1667 68.8213 50.32 69.688 50.32H71.328C72.008 50.32 72.5113 50.2567 72.838 50.13C73.1646 50.0033 73.3813 49.78 73.488 49.46C73.5613 49.2067 73.6613 49.0133 73.788 48.88C73.9213 48.7467 74.1213 48.68 74.388 48.68C74.668 48.68 74.8813 48.7533 75.028 48.9C75.1746 49.0467 75.2213 49.26 75.168 49.54C75.0213 50.3667 74.628 50.9833 73.988 51.39C73.348 51.7967 72.4613 52 71.328 52H69.688C68.3613 52 67.3746 51.68 66.728 51.04C66.088 50.4 65.768 49.42 65.768 48.1V45.78C65.768 44.4267 66.088 43.4333 66.728 42.8C67.3746 42.16 68.3613 41.8467 69.688 41.86H71.328C72.6613 41.86 73.648 42.18 74.288 42.82C74.928 43.4533 75.248 44.44 75.248 45.78V46.78C75.248 47.34 74.968 47.62 74.408 47.62H67.448ZM69.688 43.54C68.8213 43.5267 68.2313 43.6767 67.918 43.99C67.6046 44.3033 67.448 44.9 67.448 45.78V45.94H73.568V45.78C73.568 44.9067 73.4113 44.3167 73.098 44.01C72.7913 43.6967 72.2013 43.54 71.328 43.54H69.688ZM79.7638 52C79.2038 52 78.9238 51.72 78.9238 51.16V42.7C78.9238 42.14 79.2038 41.86 79.7638 41.86C80.3238 41.86 80.6038 42.14 80.6038 42.7V43.48C80.9971 42.9467 81.4971 42.5433 82.1038 42.27C82.7171 41.9967 83.4171 41.86 84.2038 41.86C84.7638 41.86 85.0438 42.14 85.0438 42.7C85.0438 43.26 84.7638 43.54 84.2038 43.54C83.0504 43.54 82.1704 43.7533 81.5638 44.18C80.9571 44.6067 80.6371 45.17 80.6038 45.87V51.16C80.6038 51.72 80.3238 52 79.7638 52ZM88.2989 52C87.7389 52 87.4589 51.72 87.4589 51.16V42.7C87.4589 42.14 87.7389 41.86 88.2989 41.86C88.8589 41.86 89.1389 42.14 89.1389 42.7V43.03C89.8456 42.25 90.8856 41.86 92.2589 41.86H92.8189C94.1522 41.86 95.1389 42.18 95.7789 42.82C96.4189 43.46 96.7389 44.4467 96.7389 45.78V51.16C96.7389 51.72 96.4589 52 95.8989 52C95.3389 52 95.0589 51.72 95.0589 51.16V45.78C95.0589 44.9067 94.8989 44.3167 94.5789 44.01C94.2656 43.6967 93.6789 43.54 92.8189 43.54H92.2589C91.4589 43.54 90.7622 43.6333 90.1689 43.82C89.5756 44 89.2322 44.2867 89.1389 44.68V51.16C89.1389 51.72 88.8589 52 88.2989 52ZM101.901 47.62V48.1C101.901 48.96 102.058 49.5467 102.371 49.86C102.684 50.1667 103.274 50.32 104.141 50.32H105.781C106.461 50.32 106.964 50.2567 107.291 50.13C107.618 50.0033 107.834 49.78 107.941 49.46C108.014 49.2067 108.114 49.0133 108.241 48.88C108.374 48.7467 108.574 48.68 108.841 48.68C109.121 48.68 109.334 48.7533 109.481 48.9C109.628 49.0467 109.674 49.26 109.621 49.54C109.474 50.3667 109.081 50.9833 108.441 51.39C107.801 51.7967 106.914 52 105.781 52H104.141C102.814 52 101.828 51.68 101.181 51.04C100.541 50.4 100.221 49.42 100.221 48.1V45.78C100.221 44.4267 100.541 43.4333 101.181 42.8C101.828 42.16 102.814 41.8467 104.141 41.86H105.781C107.114 41.86 108.101 42.18 108.741 42.82C109.381 43.4533 109.701 44.44 109.701 45.78V46.78C109.701 47.34 109.421 47.62 108.861 47.62H101.901ZM104.141 43.54C103.274 43.5267 102.684 43.6767 102.371 43.99C102.058 44.3033 101.901 44.9 101.901 45.78V45.94H108.021V45.78C108.021 44.9067 107.864 44.3167 107.551 44.01C107.244 43.6967 106.654 43.54 105.781 43.54H104.141ZM115.757 52C114.91 52 114.24 51.8267 113.747 51.48C113.254 51.1267 112.937 50.6 112.797 49.9C112.75 49.62 112.804 49.4 112.957 49.24C113.117 49.08 113.337 49 113.617 49C113.89 49 114.087 49.07 114.207 49.21C114.334 49.3433 114.437 49.5467 114.517 49.82C114.597 50.02 114.73 50.1533 114.917 50.22C115.11 50.2867 115.39 50.32 115.757 50.32H119.037C119.557 50.32 119.907 50.2367 120.087 50.07C120.267 49.8967 120.357 49.54 120.357 49C120.357 48.4667 120.267 48.1133 120.087 47.94C119.907 47.7667 119.557 47.68 119.037 47.68H115.817C114.857 47.68 114.134 47.4367 113.647 46.95C113.16 46.4633 112.917 45.74 112.917 44.78C112.917 43.8 113.154 43.07 113.627 42.59C114.107 42.1033 114.837 41.86 115.817 41.86H118.937C120.504 41.86 121.43 42.52 121.717 43.84C121.77 44.12 121.717 44.3367 121.557 44.49C121.397 44.6433 121.177 44.72 120.897 44.72C120.637 44.72 120.444 44.6533 120.317 44.52C120.19 44.38 120.09 44.1867 120.017 43.94C119.937 43.78 119.814 43.6733 119.647 43.62C119.487 43.5667 119.25 43.54 118.937 43.54H115.817C115.31 43.54 114.98 43.6167 114.827 43.77C114.674 43.9233 114.597 44.26 114.597 44.78C114.597 45.26 114.677 45.5833 114.837 45.75C115.004 45.9167 115.33 46 115.817 46H119.037C120.037 46 120.787 46.25 121.287 46.75C121.787 47.25 122.037 48 122.037 49C122.037 50.0067 121.787 50.76 121.287 51.26C120.787 51.7533 120.037 52 119.037 52H115.757Z" fill="black"/>
<rect y="62" width="167" height="26" fill="#F2F2F2"/>
<path d="M50.6341 81C49.4941 81 48.6041 80.77 47.9641 80.31C47.3307 79.85 46.9341 79.14 46.7741 78.18C46.7474 77.8867 46.8074 77.6667 46.9541 77.52C47.1007 77.3733 47.3141 77.3 47.5941 77.3C47.8741 77.3 48.0774 77.3667 48.2041 77.5C48.3374 77.6333 48.4274 77.84 48.4741 78.12C48.5741 78.58 48.7874 78.8967 49.1141 79.07C49.4474 79.2367 49.9541 79.32 50.6341 79.32H53.5141C54.3741 79.32 54.9574 79.1667 55.2641 78.86C55.5774 78.5467 55.7341 77.9667 55.7341 77.12C55.7341 76.26 55.5741 75.6733 55.2541 75.36C54.9341 75.04 54.3541 74.88 53.5141 74.88H51.0341C49.7741 74.88 48.8374 74.5733 48.2241 73.96C47.6174 73.34 47.3141 72.4 47.3141 71.14C47.3141 69.8867 47.6141 68.9567 48.2141 68.35C48.8207 67.7433 49.7541 67.44 51.0141 67.44H53.3941C54.4541 67.44 55.2841 67.6567 55.8841 68.09C56.4907 68.5233 56.8741 69.1867 57.0341 70.08C57.0741 70.3667 57.0207 70.5867 56.8741 70.74C56.7274 70.8867 56.5074 70.96 56.2141 70.96C55.9474 70.96 55.7474 70.89 55.6141 70.75C55.4807 70.61 55.3941 70.4067 55.3541 70.14C55.2474 69.7467 55.0441 69.48 54.7441 69.34C54.4441 69.1933 53.9941 69.12 53.3941 69.12H51.0141C50.2141 69.12 49.6774 69.2633 49.4041 69.55C49.1307 69.83 48.9941 70.36 48.9941 71.14C48.9941 71.9267 49.1341 72.4667 49.4141 72.76C49.6941 73.0533 50.2341 73.2 51.0341 73.2H53.5141C54.8274 73.2 55.8041 73.52 56.4441 74.16C57.0907 74.8 57.4141 75.7867 57.4141 77.12C57.4141 78.4467 57.0941 79.4267 56.4541 80.06C55.8141 80.6867 54.8341 81 53.5141 81H50.6341ZM64.2117 81C63.0917 81 62.2584 80.7267 61.7117 80.18C61.1651 79.6333 60.8917 78.8 60.8917 77.68C60.8917 76.56 61.1617 75.7267 61.7017 75.18C62.2484 74.6333 63.0851 74.36 64.2117 74.36H68.4417C68.4017 73.66 68.2184 73.1833 67.8917 72.93C67.5651 72.67 67.0051 72.54 66.2117 72.54H65.0517C64.3851 72.54 63.8884 72.5867 63.5617 72.68C63.2351 72.7667 63.0051 72.9267 62.8717 73.16C62.7517 73.44 62.6284 73.6333 62.5017 73.74C62.3751 73.8467 62.1851 73.9 61.9317 73.9C61.6517 73.9 61.4317 73.8233 61.2717 73.67C61.1117 73.51 61.0651 73.3 61.1317 73.04C61.3317 72.2867 61.7484 71.7367 62.3817 71.39C63.0217 71.0367 63.9117 70.86 65.0517 70.86H66.2117C67.5451 70.86 68.5317 71.18 69.1717 71.82C69.8117 72.46 70.1317 73.4467 70.1317 74.78V80.16C70.1317 80.72 69.8517 81 69.2917 81C68.7317 81 68.4517 80.72 68.4517 80.16V79.71C67.7384 80.57 66.6984 81 65.3317 81H64.2117ZM64.2117 79.32H65.3317C65.8251 79.32 66.2884 79.2767 66.7217 79.19C67.1551 79.0967 67.5251 78.93 67.8317 78.69C68.1451 78.45 68.3517 78.1067 68.4517 77.66V76.04H64.2117C63.5517 76.04 63.1117 76.15 62.8917 76.37C62.6784 76.59 62.5717 77.0267 62.5717 77.68C62.5717 78.34 62.6784 78.78 62.8917 79C63.1117 79.2133 63.5517 79.32 64.2117 79.32ZM64.9917 69.62C65.3851 69.9333 65.7251 69.9067 66.0117 69.54L67.4717 67.78C67.7917 67.3933 67.7651 67.0533 67.3917 66.76C67.0184 66.4467 66.6784 66.4733 66.3717 66.84L64.9117 68.6C64.5984 68.9733 64.6251 69.3133 64.9917 69.62ZM74.9395 81C74.3795 81 74.0995 80.72 74.0995 80.16V67.76C74.0995 67.2 74.3795 66.92 74.9395 66.92C75.4995 66.92 75.7795 67.2 75.7795 67.76V71.93C76.1262 71.5767 76.5595 71.31 77.0795 71.13C77.5995 70.95 78.2062 70.86 78.8995 70.86H79.6595C80.9929 70.86 81.9795 71.18 82.6195 71.82C83.2595 72.46 83.5795 73.4467 83.5795 74.78V77.08C83.5795 78.4067 83.2595 79.3933 82.6195 80.04C81.9795 80.68 80.9929 81 79.6595 81H78.8995C78.2062 81 77.5995 80.91 77.0795 80.73C76.5595 80.55 76.1262 80.2867 75.7795 79.94V80.16C75.7795 80.72 75.4995 81 74.9395 81ZM78.8995 79.32H79.6595C80.5329 79.32 81.1229 79.1633 81.4295 78.85C81.7429 78.53 81.8995 77.94 81.8995 77.08V74.78C81.8995 73.9067 81.7395 73.3167 81.4195 73.01C81.1062 72.6967 80.5195 72.54 79.6595 72.54H78.8995C78.0195 72.54 77.2795 72.6533 76.6795 72.88C76.0795 73.1 75.7795 73.4467 75.7795 73.92V77.94C75.7795 78.4067 76.0795 78.7533 76.6795 78.98C77.2795 79.2067 78.0195 79.32 78.8995 79.32ZM90.3836 81C89.2636 81 88.4303 80.7267 87.8836 80.18C87.3369 79.6333 87.0636 78.8 87.0636 77.68C87.0636 76.56 87.3336 75.7267 87.8736 75.18C88.4203 74.6333 89.2569 74.36 90.3836 74.36H94.6136C94.5736 73.66 94.3903 73.1833 94.0636 72.93C93.7369 72.67 93.1769 72.54 92.3836 72.54H91.2236C90.5569 72.54 90.0603 72.5867 89.7336 72.68C89.4069 72.7667 89.1769 72.9267 89.0436 73.16C88.9236 73.44 88.8003 73.6333 88.6736 73.74C88.5469 73.8467 88.3569 73.9 88.1036 73.9C87.8236 73.9 87.6036 73.8233 87.4436 73.67C87.2836 73.51 87.2369 73.3 87.3036 73.04C87.5036 72.2867 87.9203 71.7367 88.5536 71.39C89.1936 71.0367 90.0836 70.86 91.2236 70.86H92.3836C93.7169 70.86 94.7036 71.18 95.3436 71.82C95.9836 72.46 96.3036 73.4467 96.3036 74.78V80.16C96.3036 80.72 96.0236 81 95.4636 81C94.9036 81 94.6236 80.72 94.6236 80.16V79.71C93.9103 80.57 92.8703 81 91.5036 81H90.3836ZM90.3836 79.32H91.5036C91.9969 79.32 92.4603 79.2767 92.8936 79.19C93.3269 79.0967 93.6969 78.93 94.0036 78.69C94.3169 78.45 94.5236 78.1067 94.6236 77.66V76.04H90.3836C89.7236 76.04 89.2836 76.15 89.0636 76.37C88.8503 76.59 88.7436 77.0267 88.7436 77.68C88.7436 78.34 88.8503 78.78 89.0636 79C89.2836 79.2133 89.7236 79.32 90.3836 79.32ZM103.711 81C102.385 81 101.398 80.68 100.751 80.04C100.111 79.3933 99.7914 78.4067 99.7914 77.08V74.78C99.7914 73.4467 100.111 72.46 100.751 71.82C101.398 71.18 102.385 70.86 103.711 70.86H107.591V67.76C107.591 67.2 107.871 66.92 108.431 66.92C108.991 66.92 109.271 67.2 109.271 67.76V80.16C109.271 80.72 108.991 81 108.431 81C107.871 81 107.591 80.72 107.591 80.16V80.02C107.278 80.34 106.868 80.5833 106.361 80.75C105.855 80.9167 105.225 81 104.471 81H103.711ZM103.711 79.32H104.471C105.351 79.32 106.091 79.2067 106.691 78.98C107.291 78.7533 107.591 78.4067 107.591 77.94V72.54H103.711C102.845 72.54 102.255 72.7 101.941 73.02C101.628 73.3333 101.471 73.92 101.471 74.78V77.08C101.471 77.9467 101.628 78.5367 101.941 78.85C102.261 79.1633 102.851 79.32 103.711 79.32ZM116.68 81C115.353 81 114.367 80.68 113.72 80.04C113.08 79.4 112.76 78.42 112.76 77.1V74.78C112.76 73.44 113.08 72.4533 113.72 71.82C114.367 71.18 115.353 70.86 116.68 70.86H118.32C119.653 70.86 120.64 71.18 121.28 71.82C121.92 72.46 122.24 73.4467 122.24 74.78V77.08C122.24 78.4067 121.92 79.3933 121.28 80.04C120.64 80.68 119.653 81 118.32 81H116.68ZM114.44 77.1C114.44 77.96 114.597 78.5467 114.91 78.86C115.223 79.1667 115.813 79.32 116.68 79.32H118.32C119.193 79.32 119.783 79.1633 120.09 78.85C120.403 78.5367 120.56 77.9467 120.56 77.08V74.78C120.56 73.9067 120.403 73.3167 120.09 73.01C119.783 72.6967 119.193 72.54 118.32 72.54H116.68C116.1 72.54 115.647 72.6067 115.32 72.74C115 72.8667 114.773 73.0933 114.64 73.42C114.507 73.74 114.44 74.1933 114.44 74.78V77.1Z" fill="black"/>
<rect y="93" width="167" height="26" fill="#F2F2F2"/>
<path d="M42.2149 112C41.6549 112 41.3749 111.72 41.3749 111.16V99.28C41.3749 98.72 41.6549 98.44 42.2149 98.44H47.0349C48.7749 98.44 50.0549 98.8533 50.8749 99.68C51.7016 100.5 52.1149 101.78 52.1149 103.52V106.92C52.1149 108.66 51.7049 109.943 50.8849 110.77C50.0716 111.59 48.7883 112 47.0349 112H42.2149ZM43.0549 110.32H47.0349C47.8883 110.32 48.5616 110.217 49.0549 110.01C49.5549 109.797 49.9083 109.443 50.1149 108.95C50.3283 108.45 50.4349 107.773 50.4349 106.92V103.52C50.4349 102.673 50.3283 102.003 50.1149 101.51C49.9083 101.01 49.5549 100.653 49.0549 100.44C48.5616 100.227 47.8883 100.12 47.0349 100.12H43.0549V110.32ZM59.229 112C57.9023 112 56.9157 111.68 56.269 111.04C55.629 110.4 55.309 109.42 55.309 108.1V105.78C55.309 104.44 55.629 103.453 56.269 102.82C56.9157 102.18 57.9023 101.86 59.229 101.86H60.869C62.2023 101.86 63.189 102.18 63.829 102.82C64.469 103.46 64.789 104.447 64.789 105.78V108.08C64.789 109.407 64.469 110.393 63.829 111.04C63.189 111.68 62.2023 112 60.869 112H59.229ZM56.989 108.1C56.989 108.96 57.1457 109.547 57.459 109.86C57.7723 110.167 58.3623 110.32 59.229 110.32H60.869C61.7423 110.32 62.3323 110.163 62.639 109.85C62.9523 109.537 63.109 108.947 63.109 108.08V105.78C63.109 104.907 62.9523 104.317 62.639 104.01C62.3323 103.697 61.7423 103.54 60.869 103.54H59.229C58.649 103.54 58.1957 103.607 57.869 103.74C57.549 103.867 57.3223 104.093 57.189 104.42C57.0557 104.74 56.989 105.193 56.989 105.78V108.1ZM79.5648 101.86C80.8248 101.86 81.7281 102.157 82.2748 102.75C82.8281 103.343 83.1048 104.327 83.1048 105.7V111.16C83.1048 111.72 82.8248 112 82.2648 112C81.7048 112 81.4248 111.72 81.4248 111.16V105.7C81.4248 104.94 81.2781 104.39 80.9848 104.05C80.6981 103.71 80.2248 103.54 79.5648 103.54H78.7448C77.9848 103.54 77.4414 103.71 77.1148 104.05C76.7881 104.39 76.6248 104.94 76.6248 105.7V111.16C76.6248 111.72 76.3448 112 75.7848 112C75.2248 112 74.9448 111.72 74.9448 111.16V105.7C74.9448 104.94 74.7981 104.39 74.5048 104.05C74.2181 103.71 73.7448 103.54 73.0848 103.54H72.2648C71.5048 103.54 70.9614 103.71 70.6348 104.05C70.3081 104.39 70.1448 104.94 70.1448 105.7V111.16C70.1448 111.72 69.8648 112 69.3048 112C68.7448 112 68.4648 111.72 68.4648 111.16V102.7C68.4648 102.14 68.7448 101.86 69.3048 101.86C69.8648 101.86 70.1448 102.14 70.1448 102.7V103.16C70.4981 102.7 70.8848 102.37 71.3048 102.17C71.7314 101.963 72.2381 101.86 72.8248 101.86H73.0848C73.9114 101.86 74.5614 101.977 75.0348 102.21C75.5081 102.437 75.8681 102.807 76.1148 103.32C76.4681 102.793 76.8414 102.42 77.2348 102.2C77.6348 101.973 78.1381 101.86 78.7448 101.86H79.5648ZM87.8985 112C87.3385 112 87.0585 111.72 87.0585 111.16V102.7C87.0585 102.14 87.3385 101.86 87.8985 101.86C88.4585 101.86 88.7385 102.14 88.7385 102.7V111.16C88.7385 111.72 88.4585 112 87.8985 112ZM87.6185 100.22C86.9852 100.22 86.6685 99.9 86.6685 99.26V98.67C86.6685 98.0433 86.9852 97.73 87.6185 97.73H88.1985C88.8052 97.73 89.1085 98.0433 89.1085 98.67V99.26C89.1085 99.9 88.8052 100.22 88.1985 100.22H87.6185ZM93.7384 112C93.1784 112 92.8984 111.72 92.8984 111.16V102.7C92.8984 102.14 93.1784 101.86 93.7384 101.86C94.2984 101.86 94.5784 102.14 94.5784 102.7V103.03C95.285 102.25 96.325 101.86 97.6984 101.86H98.2584C99.5917 101.86 100.578 102.18 101.218 102.82C101.858 103.46 102.178 104.447 102.178 105.78V111.16C102.178 111.72 101.898 112 101.338 112C100.778 112 100.498 111.72 100.498 111.16V105.78C100.498 104.907 100.338 104.317 100.018 104.01C99.705 103.697 99.1184 103.54 98.2584 103.54H97.6984C96.8984 103.54 96.2017 103.633 95.6084 103.82C95.015 104 94.6717 104.287 94.5784 104.68V111.16C94.5784 111.72 94.2984 112 93.7384 112ZM108.541 116C107.734 116 107.097 115.837 106.631 115.51C106.171 115.183 105.874 114.687 105.741 114.02C105.694 113.74 105.744 113.52 105.891 113.36C106.037 113.2 106.261 113.12 106.561 113.12C106.814 113.12 106.997 113.187 107.111 113.32C107.231 113.46 107.334 113.667 107.421 113.94C107.501 114.087 107.624 114.187 107.791 114.24C107.964 114.293 108.214 114.32 108.541 114.32H112.261C112.761 114.32 113.084 114.24 113.231 114.08C113.384 113.927 113.461 113.607 113.461 113.12V110.79C113.101 111.183 112.654 111.483 112.121 111.69C111.594 111.897 111.001 112 110.341 112H109.581C108.254 112 107.267 111.68 106.621 111.04C105.981 110.4 105.661 109.42 105.661 108.1V105.78C105.661 104.44 105.977 103.453 106.611 102.82C107.251 102.18 108.241 101.86 109.581 101.86H111.221C111.694 101.86 112.117 101.93 112.491 102.07C112.871 102.21 113.194 102.423 113.461 102.71V102.7C113.461 102.14 113.741 101.86 114.301 101.86C114.861 101.86 115.141 102.14 115.141 102.7V113.12C115.141 114.1 114.904 114.823 114.431 115.29C113.964 115.763 113.241 116 112.261 116H108.541ZM109.581 110.32H110.341C111.221 110.32 111.961 110.21 112.561 109.99C113.161 109.77 113.461 109.42 113.461 108.94V104.94C113.461 104.4 113.264 104.033 112.871 103.84C112.484 103.64 111.934 103.54 111.221 103.54H109.581C108.721 103.54 108.131 103.693 107.811 104C107.497 104.307 107.341 104.9 107.341 105.78V108.1C107.341 108.947 107.497 109.53 107.811 109.85C108.124 110.163 108.714 110.32 109.581 110.32ZM122.549 112C121.223 112 120.236 111.68 119.589 111.04C118.949 110.4 118.629 109.42 118.629 108.1V105.78C118.629 104.44 118.949 103.453 119.589 102.82C120.236 102.18 121.223 101.86 122.549 101.86H124.189C125.523 101.86 126.509 102.18 127.149 102.82C127.789 103.46 128.109 104.447 128.109 105.78V108.08C128.109 109.407 127.789 110.393 127.149 111.04C126.509 111.68 125.523 112 124.189 112H122.549ZM120.309 108.1C120.309 108.96 120.466 109.547 120.779 109.86C121.093 110.167 121.683 110.32 122.549 110.32H124.189C125.063 110.32 125.653 110.163 125.959 109.85C126.273 109.537 126.429 108.947 126.429 108.08V105.78C126.429 104.907 126.273 104.317 125.959 104.01C125.653 103.697 125.063 103.54 124.189 103.54H122.549C121.969 103.54 121.516 103.607 121.189 103.74C120.869 103.867 120.643 104.093 120.509 104.42C120.376 104.74 120.309 105.193 120.309 105.78V108.1Z" fill="black"/>
</svg>
