<svg width="130" height="51" viewBox="0 0 130 51" fill="none" xmlns="http://www.w3.org/2000/svg">
<g filter="url(#filter0_d)">
<rect x="2" y="3" width="122" height="40" rx="10" fill="#16C43D"/>
</g>
<path d="M27.7408 27.92C27.2074 27.7133 27.0474 27.3467 27.2608 26.82L32.0208 15.1C32.2208 14.66 32.5341 14.44 32.9608 14.44H33.0008C33.4341 14.46 33.7274 14.68 33.8808 15.1L38.7208 26.82C38.9341 27.3467 38.7808 27.7133 38.2608 27.92C37.7341 28.1267 37.3674 27.9733 37.1608 27.46L36.0808 24.84H29.8508L28.8208 27.46C28.6141 27.98 28.2541 28.1333 27.7408 27.92ZM30.5108 23.16H35.3908L32.9008 17.1L30.5108 23.16ZM42.1505 28C41.5905 28 41.3105 27.72 41.3105 27.16V14.76C41.3105 14.2 41.5905 13.92 42.1505 13.92C42.7105 13.92 42.9905 14.2 42.9905 14.76V18.93C43.3371 18.5767 43.7705 18.31 44.2905 18.13C44.8105 17.95 45.4171 17.86 46.1105 17.86H46.8705C48.2038 17.86 49.1905 18.18 49.8305 18.82C50.4705 19.46 50.7905 20.4467 50.7905 21.78V24.08C50.7905 25.4067 50.4705 26.3933 49.8305 27.04C49.1905 27.68 48.2038 28 46.8705 28H46.1105C45.4171 28 44.8105 27.91 44.2905 27.73C43.7705 27.55 43.3371 27.2867 42.9905 26.94V27.16C42.9905 27.72 42.7105 28 42.1505 28ZM46.1105 26.32H46.8705C47.7438 26.32 48.3338 26.1633 48.6405 25.85C48.9538 25.53 49.1105 24.94 49.1105 24.08V21.78C49.1105 20.9067 48.9505 20.3167 48.6305 20.01C48.3171 19.6967 47.7305 19.54 46.8705 19.54H46.1105C45.2305 19.54 44.4905 19.6533 43.8905 19.88C43.2905 20.1 42.9905 20.4467 42.9905 20.92V24.94C42.9905 25.4067 43.2905 25.7533 43.8905 25.98C44.4905 26.2067 45.2305 26.32 46.1105 26.32ZM55.3145 28C54.7545 28 54.4745 27.72 54.4745 27.16V18.7C54.4745 18.14 54.7545 17.86 55.3145 17.86C55.8745 17.86 56.1545 18.14 56.1545 18.7V27.16C56.1545 27.72 55.8745 28 55.3145 28ZM55.0345 16.22C54.4012 16.22 54.0845 15.9 54.0845 15.26V14.67C54.0845 14.0433 54.4012 13.73 55.0345 13.73H55.6145C56.2212 13.73 56.5245 14.0433 56.5245 14.67V15.26C56.5245 15.9 56.2212 16.22 55.6145 16.22H55.0345ZM61.5144 23.62V24.1C61.5144 24.96 61.671 25.5467 61.9844 25.86C62.2977 26.1667 62.8877 26.32 63.7544 26.32H65.3944C66.0744 26.32 66.5777 26.2567 66.9044 26.13C67.231 26.0033 67.4477 25.78 67.5544 25.46C67.6277 25.2067 67.7277 25.0133 67.8544 24.88C67.9877 24.7467 68.1877 24.68 68.4544 24.68C68.7344 24.68 68.9477 24.7533 69.0944 24.9C69.241 25.0467 69.2877 25.26 69.2344 25.54C69.0877 26.3667 68.6944 26.9833 68.0544 27.39C67.4144 27.7967 66.5277 28 65.3944 28H63.7544C62.4277 28 61.441 27.68 60.7944 27.04C60.1544 26.4 59.8344 25.42 59.8344 24.1V21.78C59.8344 20.4267 60.1544 19.4333 60.7944 18.8C61.441 18.16 62.4277 17.8467 63.7544 17.86H65.3944C66.7277 17.86 67.7144 18.18 68.3544 18.82C68.9944 19.4533 69.3144 20.44 69.3144 21.78V22.78C69.3144 23.34 69.0344 23.62 68.4744 23.62H61.5144ZM63.7544 19.54C62.8877 19.5267 62.2977 19.6767 61.9844 19.99C61.671 20.3033 61.5144 20.9 61.5144 21.78V21.94H67.6344V21.78C67.6344 20.9067 67.4777 20.3167 67.1644 20.01C66.8577 19.6967 66.2677 19.54 65.3944 19.54H63.7544ZM73.8302 28C73.2702 28 72.9902 27.72 72.9902 27.16V18.7C72.9902 18.14 73.2702 17.86 73.8302 17.86C74.3902 17.86 74.6702 18.14 74.6702 18.7V19.48C75.0635 18.9467 75.5635 18.5433 76.1702 18.27C76.7835 17.9967 77.4835 17.86 78.2702 17.86C78.8302 17.86 79.1102 18.14 79.1102 18.7C79.1102 19.26 78.8302 19.54 78.2702 19.54C77.1168 19.54 76.2368 19.7533 75.6302 20.18C75.0235 20.6067 74.7035 21.17 74.6702 21.87V27.16C74.6702 27.72 74.3902 28 73.8302 28ZM85.8053 28C84.4853 28 83.512 27.6867 82.8853 27.06C82.2586 26.4333 81.9453 25.4667 81.9453 24.16V19.54H80.9653C80.4053 19.54 80.1253 19.26 80.1253 18.7C80.1253 18.14 80.4053 17.86 80.9653 17.86H81.9453V16.4C81.9453 15.84 82.2253 15.56 82.7853 15.56C83.3453 15.56 83.6253 15.84 83.6253 16.4V17.86H85.9253C86.4853 17.86 86.7653 18.14 86.7653 18.7C86.7653 19.26 86.4853 19.54 85.9253 19.54H83.6253V24.16C83.6253 25.0067 83.7786 25.58 84.0853 25.88C84.392 26.1733 84.9653 26.32 85.8053 26.32C86.0653 26.32 86.2686 26.3867 86.4153 26.52C86.5686 26.6533 86.6453 26.8667 86.6453 27.16C86.6453 27.72 86.3653 28 85.8053 28ZM92.5434 28C91.2168 28 90.2301 27.68 89.5834 27.04C88.9434 26.4 88.6234 25.42 88.6234 24.1V21.78C88.6234 20.44 88.9434 19.4533 89.5834 18.82C90.2301 18.18 91.2168 17.86 92.5434 17.86H94.1834C95.5168 17.86 96.5034 18.18 97.1434 18.82C97.7834 19.46 98.1034 20.4467 98.1034 21.78V24.08C98.1034 25.4067 97.7834 26.3933 97.1434 27.04C96.5034 27.68 95.5168 28 94.1834 28H92.5434ZM90.3034 24.1C90.3034 24.96 90.4601 25.5467 90.7734 25.86C91.0868 26.1667 91.6768 26.32 92.5434 26.32H94.1834C95.0568 26.32 95.6468 26.1633 95.9534 25.85C96.2668 25.5367 96.4234 24.9467 96.4234 24.08V21.78C96.4234 20.9067 96.2668 20.3167 95.9534 20.01C95.6468 19.6967 95.0568 19.54 94.1834 19.54H92.5434C91.9634 19.54 91.5101 19.6067 91.1834 19.74C90.8634 19.8667 90.6368 20.0933 90.5034 20.42C90.3701 20.74 90.3034 21.1933 90.3034 21.78V24.1Z" fill="white"/>
<defs>
<filter id="filter0_d" x="0" y="3" width="130" height="48" filterUnits="userSpaceOnUse" color-interpolation-filters="sRGB">
<feFlood flood-opacity="0" result="BackgroundImageFix"/>
<feColorMatrix in="SourceAlpha" type="matrix" values="0 0 0 0 0 0 0 0 0 0 0 0 0 0 0 0 0 0 127 0"/>
<feOffset dx="2" dy="4"/>
<feGaussianBlur stdDeviation="2"/>
<feColorMatrix type="matrix" values="0 0 0 0 0 0 0 0 0 0 0 0 0 0 0 0 0 0 0.25 0"/>
<feBlend mode="normal" in2="BackgroundImageFix" result="effect1_dropShadow"/>
<feBlend mode="normal" in="SourceGraphic" in2="effect1_dropShadow" result="shape"/>
</filter>
</defs>
</svg>
