<svg width="130" height="51" viewBox="0 0 130 51" fill="none" xmlns="http://www.w3.org/2000/svg">
<g filter="url(#filter0_d)">
<rect x="2" y="3" width="122" height="40" rx="10" fill="#D8D7D7"/>
</g>
<path d="M28.621 28C27.0943 28 25.9643 27.6367 25.231 26.91C24.5043 26.1767 24.141 25.0467 24.141 23.52V18.92C24.141 17.38 24.5043 16.2467 25.231 15.52C25.9577 14.7867 27.081 14.4267 28.601 14.44H31.021C32.2743 14.44 33.231 14.7 33.891 15.22C34.551 15.7333 34.9343 16.5467 35.041 17.66C35.081 17.94 35.0277 18.1533 34.881 18.3C34.7343 18.4467 34.521 18.52 34.241 18.52C33.7343 18.52 33.441 18.24 33.361 17.68C33.2943 17.0667 33.081 16.6533 32.721 16.44C32.3677 16.2267 31.801 16.12 31.021 16.12H28.601C27.8943 16.1133 27.3377 16.1933 26.931 16.36C26.531 16.5267 26.2443 16.8167 26.071 17.23C25.9043 17.6367 25.821 18.2 25.821 18.92V23.52C25.821 24.2333 25.9043 24.7933 26.071 25.2C26.2443 25.6067 26.5343 25.8967 26.941 26.07C27.3477 26.2367 27.9077 26.32 28.621 26.32H31.021C31.801 26.32 32.3677 26.2133 32.721 26C33.081 25.78 33.2943 25.3667 33.361 24.76C33.441 24.2 33.7343 23.92 34.241 23.92C34.521 23.92 34.7343 23.9933 34.881 24.14C35.0277 24.2867 35.081 24.5 35.041 24.78C34.9343 25.9 34.551 26.7167 33.891 27.23C33.231 27.7433 32.2743 28 31.021 28H28.621ZM38.946 23.62V24.1C38.946 24.96 39.1027 25.5467 39.416 25.86C39.7293 26.1667 40.3193 26.32 41.186 26.32H42.826C43.506 26.32 44.0093 26.2567 44.336 26.13C44.6627 26.0033 44.8793 25.78 44.986 25.46C45.0593 25.2067 45.1593 25.0133 45.286 24.88C45.4193 24.7467 45.6193 24.68 45.886 24.68C46.166 24.68 46.3793 24.7533 46.526 24.9C46.6727 25.0467 46.7193 25.26 46.666 25.54C46.5193 26.3667 46.126 26.9833 45.486 27.39C44.846 27.7967 43.9593 28 42.826 28H41.186C39.8593 28 38.8727 27.68 38.226 27.04C37.586 26.4 37.266 25.42 37.266 24.1V21.78C37.266 20.4267 37.586 19.4333 38.226 18.8C38.8727 18.16 39.8593 17.8467 41.186 17.86H42.826C44.1593 17.86 45.146 18.18 45.786 18.82C46.426 19.4533 46.746 20.44 46.746 21.78V22.78C46.746 23.34 46.466 23.62 45.906 23.62H38.946ZM41.186 19.54C40.3193 19.5267 39.7293 19.6767 39.416 19.99C39.1027 20.3033 38.946 20.9 38.946 21.78V21.94H45.066V21.78C45.066 20.9067 44.9093 20.3167 44.596 20.01C44.2893 19.6967 43.6993 19.54 42.826 19.54H41.186ZM51.2618 28C50.7018 28 50.4218 27.72 50.4218 27.16V18.7C50.4218 18.14 50.7018 17.86 51.2618 17.86C51.8218 17.86 52.1018 18.14 52.1018 18.7V19.48C52.4951 18.9467 52.9951 18.5433 53.6018 18.27C54.2151 17.9967 54.9151 17.86 55.7018 17.86C56.2618 17.86 56.5418 18.14 56.5418 18.7C56.5418 19.26 56.2618 19.54 55.7018 19.54C54.5485 19.54 53.6685 19.7533 53.0618 20.18C52.4551 20.6067 52.1351 21.17 52.1018 21.87V27.16C52.1018 27.72 51.8218 28 51.2618 28ZM59.797 28C59.237 28 58.957 27.72 58.957 27.16V18.7C58.957 18.14 59.237 17.86 59.797 17.86C60.357 17.86 60.637 18.14 60.637 18.7V19.48C61.0303 18.9467 61.5303 18.5433 62.137 18.27C62.7503 17.9967 63.4503 17.86 64.237 17.86C64.797 17.86 65.077 18.14 65.077 18.7C65.077 19.26 64.797 19.54 64.237 19.54C63.0836 19.54 62.2036 19.7533 61.597 20.18C60.9903 20.6067 60.6703 21.17 60.637 21.87V27.16C60.637 27.72 60.357 28 59.797 28ZM70.0066 28C68.8866 28 68.0533 27.7267 67.5066 27.18C66.96 26.6333 66.6866 25.8 66.6866 24.68C66.6866 23.56 66.9566 22.7267 67.4966 22.18C68.0433 21.6333 68.88 21.36 70.0066 21.36H74.2366C74.1966 20.66 74.0133 20.1833 73.6866 19.93C73.36 19.67 72.8 19.54 72.0066 19.54H70.8466C70.18 19.54 69.6833 19.5867 69.3566 19.68C69.03 19.7667 68.8 19.9267 68.6666 20.16C68.5466 20.44 68.4233 20.6333 68.2966 20.74C68.17 20.8467 67.98 20.9 67.7266 20.9C67.4466 20.9 67.2266 20.8233 67.0666 20.67C66.9066 20.51 66.86 20.3 66.9266 20.04C67.1266 19.2867 67.5433 18.7367 68.1766 18.39C68.8166 18.0367 69.7066 17.86 70.8466 17.86H72.0066C73.34 17.86 74.3266 18.18 74.9666 18.82C75.6066 19.46 75.9266 20.4467 75.9266 21.78V27.16C75.9266 27.72 75.6466 28 75.0866 28C74.5266 28 74.2466 27.72 74.2466 27.16V26.71C73.5333 27.57 72.4933 28 71.1266 28H70.0066ZM70.0066 26.32H71.1266C71.62 26.32 72.0833 26.2767 72.5166 26.19C72.95 26.0967 73.32 25.93 73.6266 25.69C73.94 25.45 74.1466 25.1067 74.2466 24.66V23.04H70.0066C69.3466 23.04 68.9066 23.15 68.6866 23.37C68.4733 23.59 68.3666 24.0267 68.3666 24.68C68.3666 25.34 68.4733 25.78 68.6866 26C68.9066 26.2133 69.3466 26.32 70.0066 26.32ZM83.3345 28C82.0078 28 81.0211 27.68 80.3745 27.04C79.7345 26.3933 79.4145 25.4067 79.4145 24.08V21.78C79.4145 20.4467 79.7345 19.46 80.3745 18.82C81.0211 18.18 82.0078 17.86 83.3345 17.86H87.2145V14.76C87.2145 14.2 87.4945 13.92 88.0545 13.92C88.6145 13.92 88.8945 14.2 88.8945 14.76V27.16C88.8945 27.72 88.6145 28 88.0545 28C87.4945 28 87.2145 27.72 87.2145 27.16V27.02C86.9011 27.34 86.4911 27.5833 85.9845 27.75C85.4778 27.9167 84.8478 28 84.0945 28H83.3345ZM83.3345 26.32H84.0945C84.9745 26.32 85.7145 26.2067 86.3145 25.98C86.9145 25.7533 87.2145 25.4067 87.2145 24.94V19.54H83.3345C82.4678 19.54 81.8778 19.7 81.5645 20.02C81.2511 20.3333 81.0945 20.92 81.0945 21.78V24.08C81.0945 24.9467 81.2511 25.5367 81.5645 25.85C81.8845 26.1633 82.4745 26.32 83.3345 26.32ZM96.3032 28C94.9765 28 93.9899 27.68 93.3432 27.04C92.7032 26.4 92.3832 25.42 92.3832 24.1V21.78C92.3832 20.44 92.7032 19.4533 93.3432 18.82C93.9899 18.18 94.9765 17.86 96.3032 17.86H97.9432C99.2765 17.86 100.263 18.18 100.903 18.82C101.543 19.46 101.863 20.4467 101.863 21.78V24.08C101.863 25.4067 101.543 26.3933 100.903 27.04C100.263 27.68 99.2765 28 97.9432 28H96.3032ZM94.0632 24.1C94.0632 24.96 94.2199 25.5467 94.5332 25.86C94.8465 26.1667 95.4365 26.32 96.3032 26.32H97.9432C98.8165 26.32 99.4065 26.1633 99.7132 25.85C100.027 25.5367 100.183 24.9467 100.183 24.08V21.78C100.183 20.9067 100.027 20.3167 99.7132 20.01C99.4065 19.6967 98.8165 19.54 97.9432 19.54H96.3032C95.7232 19.54 95.2699 19.6067 94.9432 19.74C94.6232 19.8667 94.3965 20.0933 94.2632 20.42C94.1299 20.74 94.0632 21.1933 94.0632 21.78V24.1Z" fill="black"/>
<defs>
<filter id="filter0_d" x="0" y="3" width="130" height="48" filterUnits="userSpaceOnUse" color-interpolation-filters="sRGB">
<feFlood flood-opacity="0" result="BackgroundImageFix"/>
<feColorMatrix in="SourceAlpha" type="matrix" values="0 0 0 0 0 0 0 0 0 0 0 0 0 0 0 0 0 0 127 0"/>
<feOffset dx="2" dy="4"/>
<feGaussianBlur stdDeviation="2"/>
<feColorMatrix type="matrix" values="0 0 0 0 0 0 0 0 0 0 0 0 0 0 0 0 0 0 0.25 0"/>
<feBlend mode="normal" in2="BackgroundImageFix" result="effect1_dropShadow"/>
<feBlend mode="normal" in="SourceGraphic" in2="effect1_dropShadow" result="shape"/>
</filter>
</defs>
</svg>
