<svg width="86" height="88" viewBox="0 0 86 88" fill="none" xmlns="http://www.w3.org/2000/svg">
<circle cx="43" cy="43" r="39" fill="#F2F2F2" stroke="#FF9000" stroke-width="8"/>
<g clip-path="url(#clip0)" filter="url(#filter0_d)">
<path d="M43 15.9259C31.1575 15.9259 20.0804 19.0425 10.6191 24.4582L43 75.8806L75.3808 24.4582C65.9196 19.0425 54.8425 15.9259 43 15.9259Z" fill="#D9A460"/>
<path d="M43 24.5937C32.8696 24.5937 23.3939 27.2598 15.3005 31.8925L33.1561 60.2484C33.1555 60.2715 33.1524 60.2942 33.1524 60.3176V77.2964C33.1524 78.5852 34.2493 79.6296 35.6022 79.6296C36.9552 79.6296 38.052 78.585 38.052 77.2964V68.0235L42.9998 75.8805L54.2027 58.0897V65.2155C54.2027 66.504 55.2996 67.5484 56.6525 67.5484C58.0057 67.5484 59.1023 66.5038 59.1023 65.2155V50.3087L61.3477 46.7429V53.3763C61.3477 54.6648 62.4445 55.7092 63.7975 55.7092C65.1507 55.7092 66.2473 54.6646 66.2473 53.3763V38.9617L70.6988 31.8925C62.6061 27.2598 53.1304 24.5937 43 24.5937Z" fill="#F2D383"/>
<path d="M43 24.5937C32.8696 24.5937 23.3939 27.2598 15.3005 31.8925L16.6539 34.0418C24.352 29.6354 33.3645 27.0997 43 27.0997C52.6355 27.0997 61.648 29.6354 69.3461 34.0415L70.6995 31.8923C62.6061 27.2598 53.1304 24.5937 43 24.5937Z" fill="#B3874F"/>
<path d="M50.9209 49.4159C45.8876 49.4159 41.8071 53.3021 41.8071 58.096C41.8071 62.2188 44.8266 65.6677 48.8737 66.5528L57.7894 52.394C56.1187 50.57 53.6621 49.4159 50.9209 49.4159Z" fill="#E94F3D"/>
<path d="M29.6285 37.2236C26.1333 37.2236 23.0991 39.0983 21.5701 41.849L29.5882 54.5819C29.6018 54.5821 29.6152 54.5829 29.6285 54.5829C34.6621 54.5829 38.7426 50.6971 38.7426 45.9035C38.7426 41.1098 34.6621 37.2236 29.6285 37.2236Z" fill="#E94F3D"/>
<path d="M51.5776 46.3208C56.611 46.3208 60.6915 42.4347 60.6915 37.6409C60.6915 32.8472 56.611 28.9611 51.5776 28.9611C46.5441 28.9611 42.4637 32.8472 42.4637 37.6409C42.4637 42.4347 46.5441 46.3208 51.5776 46.3208Z" fill="#E94F3D"/>
<path d="M37.6941 24.8416C31.497 25.4192 25.6088 26.9973 20.2082 29.4043C21.5305 32.644 24.8344 34.9415 28.7035 34.9415C33.7371 34.9415 37.8176 31.0555 37.8176 26.2621C37.8176 25.778 37.774 25.3038 37.6941 24.8416Z" fill="#E94F3D"/>
<path d="M37.6941 24.8416C31.497 25.4192 25.6086 26.9973 20.2082 29.4043C20.5317 30.1958 20.973 30.9315 21.5126 31.5909C26.5358 29.3761 31.9987 27.9125 37.7432 27.3544C37.7904 26.9963 37.8176 26.6323 37.8176 26.2621C37.8176 25.778 37.774 25.3038 37.6941 24.8416Z" fill="#C24232"/>
<path d="M15.3106 25.5256C15.7941 25.5256 16.1861 25.1522 16.1861 24.6917C16.1861 24.2312 15.7941 23.8578 15.3106 23.8578C14.827 23.8578 14.435 24.2312 14.435 24.6917C14.435 25.1522 14.827 25.5256 15.3106 25.5256Z" fill="#B3874F"/>
<path d="M22.4457 27.1933C22.9292 27.1933 23.3212 26.82 23.3212 26.3594C23.3212 25.8989 22.9292 25.5256 22.4457 25.5256C21.9621 25.5256 21.5701 25.8989 21.5701 26.3594C21.5701 26.82 21.9621 27.1933 22.4457 27.1933Z" fill="#B3874F"/>
<path d="M30.1563 21.5128C30.6398 21.5128 31.0318 21.1395 31.0318 20.6789C31.0318 20.2184 30.6398 19.8451 30.1563 19.8451C29.6727 19.8451 29.2807 20.2184 29.2807 20.6789C29.2807 21.1395 29.6727 21.5128 30.1563 21.5128Z" fill="#B3874F"/>
<path d="M40.1544 23.1805C40.638 23.1805 41.03 22.8072 41.03 22.3467C41.03 21.8861 40.638 21.5128 40.1544 21.5128C39.6709 21.5128 39.2789 21.8861 39.2789 22.3467C39.2789 22.8072 39.6709 23.1805 40.1544 23.1805Z" fill="#B3874F"/>
<path d="M50.6738 19.8451C51.1574 19.8451 51.5494 19.4718 51.5494 19.0112C51.5494 18.5507 51.1574 18.1774 50.6738 18.1774C50.1902 18.1774 49.7982 18.5507 49.7982 19.0112C49.7982 19.4718 50.1902 19.8451 50.6738 19.8451Z" fill="#B3874F"/>
<path d="M55.7772 24.6917C56.2608 24.6917 56.6528 24.3184 56.6528 23.8578C56.6528 23.3973 56.2608 23.024 55.7772 23.024C55.2936 23.024 54.9016 23.3973 54.9016 23.8578C54.9016 24.3184 55.2936 24.6917 55.7772 24.6917Z" fill="#B3874F"/>
<path d="M71.575 26.2614C72.0586 26.2614 72.4506 25.8881 72.4506 25.4276C72.4506 24.9671 72.0586 24.5937 71.575 24.5937C71.0915 24.5937 70.6995 24.9671 70.6995 25.4276C70.6995 25.8881 71.0915 26.2614 71.575 26.2614Z" fill="#B3874F"/>
<path d="M64.2322 24.5938C64.7157 24.5938 65.1077 24.2204 65.1077 23.7599C65.1077 23.2994 64.7157 22.926 64.2322 22.926C63.7486 22.926 63.3566 23.2994 63.3566 23.7599C63.3566 24.2204 63.7486 24.5938 64.2322 24.5938Z" fill="#B3874F"/>
</g>
<defs>
<filter id="filter0_d" x="1.55556" y="7.92593" width="82.8889" height="79.7037" filterUnits="userSpaceOnUse" color-interpolation-filters="sRGB">
<feFlood flood-opacity="0" result="BackgroundImageFix"/>
<feColorMatrix in="SourceAlpha" type="matrix" values="0 0 0 0 0 0 0 0 0 0 0 0 0 0 0 0 0 0 127 0"/>
<feOffset/>
<feGaussianBlur stdDeviation="4"/>
<feColorMatrix type="matrix" values="0 0 0 0 0 0 0 0 0 0 0 0 0 0 0 0 0 0 1 0"/>
<feBlend mode="normal" in2="BackgroundImageFix" result="effect1_dropShadow"/>
<feBlend mode="normal" in="SourceGraphic" in2="effect1_dropShadow" result="shape"/>
</filter>
<clipPath id="clip0">
<rect width="66.8889" height="63.7037" fill="white" transform="translate(9.55556 15.9259)"/>
</clipPath>
</defs>
</svg>
