<svg width="1440" height="562" viewBox="0 0 1440 562" fill="none" xmlns="http://www.w3.org/2000/svg">
<path fill-rule="evenodd" clip-rule="evenodd" d="M0 0L60 22C120 44 240 87 360 94C480 101 600 72 720 87C840 101 960 159 1080 166C1200 173 1320 130 1380 108L1440 87V346H1380C1320 346 1200 346 1080 346C960 346 840 346 720 346C600 346 480 346 360 346C240 346 120 346 60 346H0V0Z" fill="#FFC06E"/>
<path fill-rule="evenodd" clip-rule="evenodd" d="M1440 562L1380 540C1320 518 1200 475 1080 468C960 461 840 490 720 475C600 461 480 403 360 396C240 389 120 432 60 454L0 475V216H60C120 216 240 216 360 216C480 216 600 216 720 216C840 216 960 216 1080 216C1200 216 1320 216 1380 216H1440V562Z" fill="#FFC06E"/>
</svg>
